%TF.GenerationSoftware,KiCad,Pcbnew,10.0.1*%
%TF.CreationDate,2026-05-07T14:41:57-07:00*%
%TF.ProjectId,macro-keypad,6d616372-6f2d-46b6-9579-7061642e6b69,rev?*%
%TF.SameCoordinates,Original*%
%TF.FileFunction,Legend,Bot*%
%TF.FilePolarity,Positive*%
%FSLAX46Y46*%
G04 Gerber Fmt 4.6, Leading zero omitted, Abs format (unit mm)*
G04 Created by KiCad (PCBNEW 10.0.1) date 2026-05-07 14:41:57*
%MOMM*%
%LPD*%
G01*
G04 APERTURE LIST*
%ADD10C,0.150000*%
%ADD11C,0.120000*%
G04 APERTURE END LIST*
D10*
X126093332Y-162712200D02*
X125950475Y-162759819D01*
X125950475Y-162759819D02*
X125712380Y-162759819D01*
X125712380Y-162759819D02*
X125617142Y-162712200D01*
X125617142Y-162712200D02*
X125569523Y-162664580D01*
X125569523Y-162664580D02*
X125521904Y-162569342D01*
X125521904Y-162569342D02*
X125521904Y-162474104D01*
X125521904Y-162474104D02*
X125569523Y-162378866D01*
X125569523Y-162378866D02*
X125617142Y-162331247D01*
X125617142Y-162331247D02*
X125712380Y-162283628D01*
X125712380Y-162283628D02*
X125902856Y-162236009D01*
X125902856Y-162236009D02*
X125998094Y-162188390D01*
X125998094Y-162188390D02*
X126045713Y-162140771D01*
X126045713Y-162140771D02*
X126093332Y-162045533D01*
X126093332Y-162045533D02*
X126093332Y-161950295D01*
X126093332Y-161950295D02*
X126045713Y-161855057D01*
X126045713Y-161855057D02*
X125998094Y-161807438D01*
X125998094Y-161807438D02*
X125902856Y-161759819D01*
X125902856Y-161759819D02*
X125664761Y-161759819D01*
X125664761Y-161759819D02*
X125521904Y-161807438D01*
X125188570Y-161759819D02*
X124950475Y-162759819D01*
X124950475Y-162759819D02*
X124759999Y-162045533D01*
X124759999Y-162045533D02*
X124569523Y-162759819D01*
X124569523Y-162759819D02*
X124331428Y-161759819D01*
X123521904Y-161759819D02*
X123712380Y-161759819D01*
X123712380Y-161759819D02*
X123807618Y-161807438D01*
X123807618Y-161807438D02*
X123855237Y-161855057D01*
X123855237Y-161855057D02*
X123950475Y-161997914D01*
X123950475Y-161997914D02*
X123998094Y-162188390D01*
X123998094Y-162188390D02*
X123998094Y-162569342D01*
X123998094Y-162569342D02*
X123950475Y-162664580D01*
X123950475Y-162664580D02*
X123902856Y-162712200D01*
X123902856Y-162712200D02*
X123807618Y-162759819D01*
X123807618Y-162759819D02*
X123617142Y-162759819D01*
X123617142Y-162759819D02*
X123521904Y-162712200D01*
X123521904Y-162712200D02*
X123474285Y-162664580D01*
X123474285Y-162664580D02*
X123426666Y-162569342D01*
X123426666Y-162569342D02*
X123426666Y-162331247D01*
X123426666Y-162331247D02*
X123474285Y-162236009D01*
X123474285Y-162236009D02*
X123521904Y-162188390D01*
X123521904Y-162188390D02*
X123617142Y-162140771D01*
X123617142Y-162140771D02*
X123807618Y-162140771D01*
X123807618Y-162140771D02*
X123902856Y-162188390D01*
X123902856Y-162188390D02*
X123950475Y-162236009D01*
X123950475Y-162236009D02*
X123998094Y-162331247D01*
X145143332Y-162712200D02*
X145000475Y-162759819D01*
X145000475Y-162759819D02*
X144762380Y-162759819D01*
X144762380Y-162759819D02*
X144667142Y-162712200D01*
X144667142Y-162712200D02*
X144619523Y-162664580D01*
X144619523Y-162664580D02*
X144571904Y-162569342D01*
X144571904Y-162569342D02*
X144571904Y-162474104D01*
X144571904Y-162474104D02*
X144619523Y-162378866D01*
X144619523Y-162378866D02*
X144667142Y-162331247D01*
X144667142Y-162331247D02*
X144762380Y-162283628D01*
X144762380Y-162283628D02*
X144952856Y-162236009D01*
X144952856Y-162236009D02*
X145048094Y-162188390D01*
X145048094Y-162188390D02*
X145095713Y-162140771D01*
X145095713Y-162140771D02*
X145143332Y-162045533D01*
X145143332Y-162045533D02*
X145143332Y-161950295D01*
X145143332Y-161950295D02*
X145095713Y-161855057D01*
X145095713Y-161855057D02*
X145048094Y-161807438D01*
X145048094Y-161807438D02*
X144952856Y-161759819D01*
X144952856Y-161759819D02*
X144714761Y-161759819D01*
X144714761Y-161759819D02*
X144571904Y-161807438D01*
X144238570Y-161759819D02*
X144000475Y-162759819D01*
X144000475Y-162759819D02*
X143809999Y-162045533D01*
X143809999Y-162045533D02*
X143619523Y-162759819D01*
X143619523Y-162759819D02*
X143381428Y-161759819D01*
X143095713Y-161759819D02*
X142429047Y-161759819D01*
X142429047Y-161759819D02*
X142857618Y-162759819D01*
X145143332Y-143662200D02*
X145000475Y-143709819D01*
X145000475Y-143709819D02*
X144762380Y-143709819D01*
X144762380Y-143709819D02*
X144667142Y-143662200D01*
X144667142Y-143662200D02*
X144619523Y-143614580D01*
X144619523Y-143614580D02*
X144571904Y-143519342D01*
X144571904Y-143519342D02*
X144571904Y-143424104D01*
X144571904Y-143424104D02*
X144619523Y-143328866D01*
X144619523Y-143328866D02*
X144667142Y-143281247D01*
X144667142Y-143281247D02*
X144762380Y-143233628D01*
X144762380Y-143233628D02*
X144952856Y-143186009D01*
X144952856Y-143186009D02*
X145048094Y-143138390D01*
X145048094Y-143138390D02*
X145095713Y-143090771D01*
X145095713Y-143090771D02*
X145143332Y-142995533D01*
X145143332Y-142995533D02*
X145143332Y-142900295D01*
X145143332Y-142900295D02*
X145095713Y-142805057D01*
X145095713Y-142805057D02*
X145048094Y-142757438D01*
X145048094Y-142757438D02*
X144952856Y-142709819D01*
X144952856Y-142709819D02*
X144714761Y-142709819D01*
X144714761Y-142709819D02*
X144571904Y-142757438D01*
X144238570Y-142709819D02*
X144000475Y-143709819D01*
X144000475Y-143709819D02*
X143809999Y-142995533D01*
X143809999Y-142995533D02*
X143619523Y-143709819D01*
X143619523Y-143709819D02*
X143381428Y-142709819D01*
X142571904Y-143043152D02*
X142571904Y-143709819D01*
X142809999Y-142662200D02*
X143048094Y-143376485D01*
X143048094Y-143376485D02*
X142429047Y-143376485D01*
X164193332Y-162712200D02*
X164050475Y-162759819D01*
X164050475Y-162759819D02*
X163812380Y-162759819D01*
X163812380Y-162759819D02*
X163717142Y-162712200D01*
X163717142Y-162712200D02*
X163669523Y-162664580D01*
X163669523Y-162664580D02*
X163621904Y-162569342D01*
X163621904Y-162569342D02*
X163621904Y-162474104D01*
X163621904Y-162474104D02*
X163669523Y-162378866D01*
X163669523Y-162378866D02*
X163717142Y-162331247D01*
X163717142Y-162331247D02*
X163812380Y-162283628D01*
X163812380Y-162283628D02*
X164002856Y-162236009D01*
X164002856Y-162236009D02*
X164098094Y-162188390D01*
X164098094Y-162188390D02*
X164145713Y-162140771D01*
X164145713Y-162140771D02*
X164193332Y-162045533D01*
X164193332Y-162045533D02*
X164193332Y-161950295D01*
X164193332Y-161950295D02*
X164145713Y-161855057D01*
X164145713Y-161855057D02*
X164098094Y-161807438D01*
X164098094Y-161807438D02*
X164002856Y-161759819D01*
X164002856Y-161759819D02*
X163764761Y-161759819D01*
X163764761Y-161759819D02*
X163621904Y-161807438D01*
X163288570Y-161759819D02*
X163050475Y-162759819D01*
X163050475Y-162759819D02*
X162859999Y-162045533D01*
X162859999Y-162045533D02*
X162669523Y-162759819D01*
X162669523Y-162759819D02*
X162431428Y-161759819D01*
X161907618Y-162188390D02*
X162002856Y-162140771D01*
X162002856Y-162140771D02*
X162050475Y-162093152D01*
X162050475Y-162093152D02*
X162098094Y-161997914D01*
X162098094Y-161997914D02*
X162098094Y-161950295D01*
X162098094Y-161950295D02*
X162050475Y-161855057D01*
X162050475Y-161855057D02*
X162002856Y-161807438D01*
X162002856Y-161807438D02*
X161907618Y-161759819D01*
X161907618Y-161759819D02*
X161717142Y-161759819D01*
X161717142Y-161759819D02*
X161621904Y-161807438D01*
X161621904Y-161807438D02*
X161574285Y-161855057D01*
X161574285Y-161855057D02*
X161526666Y-161950295D01*
X161526666Y-161950295D02*
X161526666Y-161997914D01*
X161526666Y-161997914D02*
X161574285Y-162093152D01*
X161574285Y-162093152D02*
X161621904Y-162140771D01*
X161621904Y-162140771D02*
X161717142Y-162188390D01*
X161717142Y-162188390D02*
X161907618Y-162188390D01*
X161907618Y-162188390D02*
X162002856Y-162236009D01*
X162002856Y-162236009D02*
X162050475Y-162283628D01*
X162050475Y-162283628D02*
X162098094Y-162378866D01*
X162098094Y-162378866D02*
X162098094Y-162569342D01*
X162098094Y-162569342D02*
X162050475Y-162664580D01*
X162050475Y-162664580D02*
X162002856Y-162712200D01*
X162002856Y-162712200D02*
X161907618Y-162759819D01*
X161907618Y-162759819D02*
X161717142Y-162759819D01*
X161717142Y-162759819D02*
X161621904Y-162712200D01*
X161621904Y-162712200D02*
X161574285Y-162664580D01*
X161574285Y-162664580D02*
X161526666Y-162569342D01*
X161526666Y-162569342D02*
X161526666Y-162378866D01*
X161526666Y-162378866D02*
X161574285Y-162283628D01*
X161574285Y-162283628D02*
X161621904Y-162236009D01*
X161621904Y-162236009D02*
X161717142Y-162188390D01*
X145619523Y-181762200D02*
X145476666Y-181809819D01*
X145476666Y-181809819D02*
X145238571Y-181809819D01*
X145238571Y-181809819D02*
X145143333Y-181762200D01*
X145143333Y-181762200D02*
X145095714Y-181714580D01*
X145095714Y-181714580D02*
X145048095Y-181619342D01*
X145048095Y-181619342D02*
X145048095Y-181524104D01*
X145048095Y-181524104D02*
X145095714Y-181428866D01*
X145095714Y-181428866D02*
X145143333Y-181381247D01*
X145143333Y-181381247D02*
X145238571Y-181333628D01*
X145238571Y-181333628D02*
X145429047Y-181286009D01*
X145429047Y-181286009D02*
X145524285Y-181238390D01*
X145524285Y-181238390D02*
X145571904Y-181190771D01*
X145571904Y-181190771D02*
X145619523Y-181095533D01*
X145619523Y-181095533D02*
X145619523Y-181000295D01*
X145619523Y-181000295D02*
X145571904Y-180905057D01*
X145571904Y-180905057D02*
X145524285Y-180857438D01*
X145524285Y-180857438D02*
X145429047Y-180809819D01*
X145429047Y-180809819D02*
X145190952Y-180809819D01*
X145190952Y-180809819D02*
X145048095Y-180857438D01*
X144714761Y-180809819D02*
X144476666Y-181809819D01*
X144476666Y-181809819D02*
X144286190Y-181095533D01*
X144286190Y-181095533D02*
X144095714Y-181809819D01*
X144095714Y-181809819D02*
X143857619Y-180809819D01*
X142952857Y-181809819D02*
X143524285Y-181809819D01*
X143238571Y-181809819D02*
X143238571Y-180809819D01*
X143238571Y-180809819D02*
X143333809Y-180952676D01*
X143333809Y-180952676D02*
X143429047Y-181047914D01*
X143429047Y-181047914D02*
X143524285Y-181095533D01*
X142333809Y-180809819D02*
X142238571Y-180809819D01*
X142238571Y-180809819D02*
X142143333Y-180857438D01*
X142143333Y-180857438D02*
X142095714Y-180905057D01*
X142095714Y-180905057D02*
X142048095Y-181000295D01*
X142048095Y-181000295D02*
X142000476Y-181190771D01*
X142000476Y-181190771D02*
X142000476Y-181428866D01*
X142000476Y-181428866D02*
X142048095Y-181619342D01*
X142048095Y-181619342D02*
X142095714Y-181714580D01*
X142095714Y-181714580D02*
X142143333Y-181762200D01*
X142143333Y-181762200D02*
X142238571Y-181809819D01*
X142238571Y-181809819D02*
X142333809Y-181809819D01*
X142333809Y-181809819D02*
X142429047Y-181762200D01*
X142429047Y-181762200D02*
X142476666Y-181714580D01*
X142476666Y-181714580D02*
X142524285Y-181619342D01*
X142524285Y-181619342D02*
X142571904Y-181428866D01*
X142571904Y-181428866D02*
X142571904Y-181190771D01*
X142571904Y-181190771D02*
X142524285Y-181000295D01*
X142524285Y-181000295D02*
X142476666Y-180905057D01*
X142476666Y-180905057D02*
X142429047Y-180857438D01*
X142429047Y-180857438D02*
X142333809Y-180809819D01*
X164193332Y-143662200D02*
X164050475Y-143709819D01*
X164050475Y-143709819D02*
X163812380Y-143709819D01*
X163812380Y-143709819D02*
X163717142Y-143662200D01*
X163717142Y-143662200D02*
X163669523Y-143614580D01*
X163669523Y-143614580D02*
X163621904Y-143519342D01*
X163621904Y-143519342D02*
X163621904Y-143424104D01*
X163621904Y-143424104D02*
X163669523Y-143328866D01*
X163669523Y-143328866D02*
X163717142Y-143281247D01*
X163717142Y-143281247D02*
X163812380Y-143233628D01*
X163812380Y-143233628D02*
X164002856Y-143186009D01*
X164002856Y-143186009D02*
X164098094Y-143138390D01*
X164098094Y-143138390D02*
X164145713Y-143090771D01*
X164145713Y-143090771D02*
X164193332Y-142995533D01*
X164193332Y-142995533D02*
X164193332Y-142900295D01*
X164193332Y-142900295D02*
X164145713Y-142805057D01*
X164145713Y-142805057D02*
X164098094Y-142757438D01*
X164098094Y-142757438D02*
X164002856Y-142709819D01*
X164002856Y-142709819D02*
X163764761Y-142709819D01*
X163764761Y-142709819D02*
X163621904Y-142757438D01*
X163288570Y-142709819D02*
X163050475Y-143709819D01*
X163050475Y-143709819D02*
X162859999Y-142995533D01*
X162859999Y-142995533D02*
X162669523Y-143709819D01*
X162669523Y-143709819D02*
X162431428Y-142709819D01*
X161574285Y-142709819D02*
X162050475Y-142709819D01*
X162050475Y-142709819D02*
X162098094Y-143186009D01*
X162098094Y-143186009D02*
X162050475Y-143138390D01*
X162050475Y-143138390D02*
X161955237Y-143090771D01*
X161955237Y-143090771D02*
X161717142Y-143090771D01*
X161717142Y-143090771D02*
X161621904Y-143138390D01*
X161621904Y-143138390D02*
X161574285Y-143186009D01*
X161574285Y-143186009D02*
X161526666Y-143281247D01*
X161526666Y-143281247D02*
X161526666Y-143519342D01*
X161526666Y-143519342D02*
X161574285Y-143614580D01*
X161574285Y-143614580D02*
X161621904Y-143662200D01*
X161621904Y-143662200D02*
X161717142Y-143709819D01*
X161717142Y-143709819D02*
X161955237Y-143709819D01*
X161955237Y-143709819D02*
X162050475Y-143662200D01*
X162050475Y-143662200D02*
X162098094Y-143614580D01*
X164669523Y-181762200D02*
X164526666Y-181809819D01*
X164526666Y-181809819D02*
X164288571Y-181809819D01*
X164288571Y-181809819D02*
X164193333Y-181762200D01*
X164193333Y-181762200D02*
X164145714Y-181714580D01*
X164145714Y-181714580D02*
X164098095Y-181619342D01*
X164098095Y-181619342D02*
X164098095Y-181524104D01*
X164098095Y-181524104D02*
X164145714Y-181428866D01*
X164145714Y-181428866D02*
X164193333Y-181381247D01*
X164193333Y-181381247D02*
X164288571Y-181333628D01*
X164288571Y-181333628D02*
X164479047Y-181286009D01*
X164479047Y-181286009D02*
X164574285Y-181238390D01*
X164574285Y-181238390D02*
X164621904Y-181190771D01*
X164621904Y-181190771D02*
X164669523Y-181095533D01*
X164669523Y-181095533D02*
X164669523Y-181000295D01*
X164669523Y-181000295D02*
X164621904Y-180905057D01*
X164621904Y-180905057D02*
X164574285Y-180857438D01*
X164574285Y-180857438D02*
X164479047Y-180809819D01*
X164479047Y-180809819D02*
X164240952Y-180809819D01*
X164240952Y-180809819D02*
X164098095Y-180857438D01*
X163764761Y-180809819D02*
X163526666Y-181809819D01*
X163526666Y-181809819D02*
X163336190Y-181095533D01*
X163336190Y-181095533D02*
X163145714Y-181809819D01*
X163145714Y-181809819D02*
X162907619Y-180809819D01*
X162002857Y-181809819D02*
X162574285Y-181809819D01*
X162288571Y-181809819D02*
X162288571Y-180809819D01*
X162288571Y-180809819D02*
X162383809Y-180952676D01*
X162383809Y-180952676D02*
X162479047Y-181047914D01*
X162479047Y-181047914D02*
X162574285Y-181095533D01*
X161050476Y-181809819D02*
X161621904Y-181809819D01*
X161336190Y-181809819D02*
X161336190Y-180809819D01*
X161336190Y-180809819D02*
X161431428Y-180952676D01*
X161431428Y-180952676D02*
X161526666Y-181047914D01*
X161526666Y-181047914D02*
X161621904Y-181095533D01*
X126093332Y-143662200D02*
X125950475Y-143709819D01*
X125950475Y-143709819D02*
X125712380Y-143709819D01*
X125712380Y-143709819D02*
X125617142Y-143662200D01*
X125617142Y-143662200D02*
X125569523Y-143614580D01*
X125569523Y-143614580D02*
X125521904Y-143519342D01*
X125521904Y-143519342D02*
X125521904Y-143424104D01*
X125521904Y-143424104D02*
X125569523Y-143328866D01*
X125569523Y-143328866D02*
X125617142Y-143281247D01*
X125617142Y-143281247D02*
X125712380Y-143233628D01*
X125712380Y-143233628D02*
X125902856Y-143186009D01*
X125902856Y-143186009D02*
X125998094Y-143138390D01*
X125998094Y-143138390D02*
X126045713Y-143090771D01*
X126045713Y-143090771D02*
X126093332Y-142995533D01*
X126093332Y-142995533D02*
X126093332Y-142900295D01*
X126093332Y-142900295D02*
X126045713Y-142805057D01*
X126045713Y-142805057D02*
X125998094Y-142757438D01*
X125998094Y-142757438D02*
X125902856Y-142709819D01*
X125902856Y-142709819D02*
X125664761Y-142709819D01*
X125664761Y-142709819D02*
X125521904Y-142757438D01*
X125188570Y-142709819D02*
X124950475Y-143709819D01*
X124950475Y-143709819D02*
X124759999Y-142995533D01*
X124759999Y-142995533D02*
X124569523Y-143709819D01*
X124569523Y-143709819D02*
X124331428Y-142709819D01*
X124045713Y-142709819D02*
X123426666Y-142709819D01*
X123426666Y-142709819D02*
X123759999Y-143090771D01*
X123759999Y-143090771D02*
X123617142Y-143090771D01*
X123617142Y-143090771D02*
X123521904Y-143138390D01*
X123521904Y-143138390D02*
X123474285Y-143186009D01*
X123474285Y-143186009D02*
X123426666Y-143281247D01*
X123426666Y-143281247D02*
X123426666Y-143519342D01*
X123426666Y-143519342D02*
X123474285Y-143614580D01*
X123474285Y-143614580D02*
X123521904Y-143662200D01*
X123521904Y-143662200D02*
X123617142Y-143709819D01*
X123617142Y-143709819D02*
X123902856Y-143709819D01*
X123902856Y-143709819D02*
X123998094Y-143662200D01*
X123998094Y-143662200D02*
X124045713Y-143614580D01*
X126093332Y-181762200D02*
X125950475Y-181809819D01*
X125950475Y-181809819D02*
X125712380Y-181809819D01*
X125712380Y-181809819D02*
X125617142Y-181762200D01*
X125617142Y-181762200D02*
X125569523Y-181714580D01*
X125569523Y-181714580D02*
X125521904Y-181619342D01*
X125521904Y-181619342D02*
X125521904Y-181524104D01*
X125521904Y-181524104D02*
X125569523Y-181428866D01*
X125569523Y-181428866D02*
X125617142Y-181381247D01*
X125617142Y-181381247D02*
X125712380Y-181333628D01*
X125712380Y-181333628D02*
X125902856Y-181286009D01*
X125902856Y-181286009D02*
X125998094Y-181238390D01*
X125998094Y-181238390D02*
X126045713Y-181190771D01*
X126045713Y-181190771D02*
X126093332Y-181095533D01*
X126093332Y-181095533D02*
X126093332Y-181000295D01*
X126093332Y-181000295D02*
X126045713Y-180905057D01*
X126045713Y-180905057D02*
X125998094Y-180857438D01*
X125998094Y-180857438D02*
X125902856Y-180809819D01*
X125902856Y-180809819D02*
X125664761Y-180809819D01*
X125664761Y-180809819D02*
X125521904Y-180857438D01*
X125188570Y-180809819D02*
X124950475Y-181809819D01*
X124950475Y-181809819D02*
X124759999Y-181095533D01*
X124759999Y-181095533D02*
X124569523Y-181809819D01*
X124569523Y-181809819D02*
X124331428Y-180809819D01*
X123902856Y-181809819D02*
X123712380Y-181809819D01*
X123712380Y-181809819D02*
X123617142Y-181762200D01*
X123617142Y-181762200D02*
X123569523Y-181714580D01*
X123569523Y-181714580D02*
X123474285Y-181571723D01*
X123474285Y-181571723D02*
X123426666Y-181381247D01*
X123426666Y-181381247D02*
X123426666Y-181000295D01*
X123426666Y-181000295D02*
X123474285Y-180905057D01*
X123474285Y-180905057D02*
X123521904Y-180857438D01*
X123521904Y-180857438D02*
X123617142Y-180809819D01*
X123617142Y-180809819D02*
X123807618Y-180809819D01*
X123807618Y-180809819D02*
X123902856Y-180857438D01*
X123902856Y-180857438D02*
X123950475Y-180905057D01*
X123950475Y-180905057D02*
X123998094Y-181000295D01*
X123998094Y-181000295D02*
X123998094Y-181238390D01*
X123998094Y-181238390D02*
X123950475Y-181333628D01*
X123950475Y-181333628D02*
X123902856Y-181381247D01*
X123902856Y-181381247D02*
X123807618Y-181428866D01*
X123807618Y-181428866D02*
X123617142Y-181428866D01*
X123617142Y-181428866D02*
X123521904Y-181381247D01*
X123521904Y-181381247D02*
X123474285Y-181333628D01*
X123474285Y-181333628D02*
X123426666Y-181238390D01*
X141817857Y-179989580D02*
X141865476Y-180037200D01*
X141865476Y-180037200D02*
X142008333Y-180084819D01*
X142008333Y-180084819D02*
X142103571Y-180084819D01*
X142103571Y-180084819D02*
X142246428Y-180037200D01*
X142246428Y-180037200D02*
X142341666Y-179941961D01*
X142341666Y-179941961D02*
X142389285Y-179846723D01*
X142389285Y-179846723D02*
X142436904Y-179656247D01*
X142436904Y-179656247D02*
X142436904Y-179513390D01*
X142436904Y-179513390D02*
X142389285Y-179322914D01*
X142389285Y-179322914D02*
X142341666Y-179227676D01*
X142341666Y-179227676D02*
X142246428Y-179132438D01*
X142246428Y-179132438D02*
X142103571Y-179084819D01*
X142103571Y-179084819D02*
X142008333Y-179084819D01*
X142008333Y-179084819D02*
X141865476Y-179132438D01*
X141865476Y-179132438D02*
X141817857Y-179180057D01*
X141436904Y-179180057D02*
X141389285Y-179132438D01*
X141389285Y-179132438D02*
X141294047Y-179084819D01*
X141294047Y-179084819D02*
X141055952Y-179084819D01*
X141055952Y-179084819D02*
X140960714Y-179132438D01*
X140960714Y-179132438D02*
X140913095Y-179180057D01*
X140913095Y-179180057D02*
X140865476Y-179275295D01*
X140865476Y-179275295D02*
X140865476Y-179370533D01*
X140865476Y-179370533D02*
X140913095Y-179513390D01*
X140913095Y-179513390D02*
X141484523Y-180084819D01*
X141484523Y-180084819D02*
X140865476Y-180084819D01*
X140008333Y-179084819D02*
X140198809Y-179084819D01*
X140198809Y-179084819D02*
X140294047Y-179132438D01*
X140294047Y-179132438D02*
X140341666Y-179180057D01*
X140341666Y-179180057D02*
X140436904Y-179322914D01*
X140436904Y-179322914D02*
X140484523Y-179513390D01*
X140484523Y-179513390D02*
X140484523Y-179894342D01*
X140484523Y-179894342D02*
X140436904Y-179989580D01*
X140436904Y-179989580D02*
X140389285Y-180037200D01*
X140389285Y-180037200D02*
X140294047Y-180084819D01*
X140294047Y-180084819D02*
X140103571Y-180084819D01*
X140103571Y-180084819D02*
X140008333Y-180037200D01*
X140008333Y-180037200D02*
X139960714Y-179989580D01*
X139960714Y-179989580D02*
X139913095Y-179894342D01*
X139913095Y-179894342D02*
X139913095Y-179656247D01*
X139913095Y-179656247D02*
X139960714Y-179561009D01*
X139960714Y-179561009D02*
X140008333Y-179513390D01*
X140008333Y-179513390D02*
X140103571Y-179465771D01*
X140103571Y-179465771D02*
X140294047Y-179465771D01*
X140294047Y-179465771D02*
X140389285Y-179513390D01*
X140389285Y-179513390D02*
X140436904Y-179561009D01*
X140436904Y-179561009D02*
X140484523Y-179656247D01*
X122617857Y-179489580D02*
X122665476Y-179537200D01*
X122665476Y-179537200D02*
X122808333Y-179584819D01*
X122808333Y-179584819D02*
X122903571Y-179584819D01*
X122903571Y-179584819D02*
X123046428Y-179537200D01*
X123046428Y-179537200D02*
X123141666Y-179441961D01*
X123141666Y-179441961D02*
X123189285Y-179346723D01*
X123189285Y-179346723D02*
X123236904Y-179156247D01*
X123236904Y-179156247D02*
X123236904Y-179013390D01*
X123236904Y-179013390D02*
X123189285Y-178822914D01*
X123189285Y-178822914D02*
X123141666Y-178727676D01*
X123141666Y-178727676D02*
X123046428Y-178632438D01*
X123046428Y-178632438D02*
X122903571Y-178584819D01*
X122903571Y-178584819D02*
X122808333Y-178584819D01*
X122808333Y-178584819D02*
X122665476Y-178632438D01*
X122665476Y-178632438D02*
X122617857Y-178680057D01*
X122236904Y-178680057D02*
X122189285Y-178632438D01*
X122189285Y-178632438D02*
X122094047Y-178584819D01*
X122094047Y-178584819D02*
X121855952Y-178584819D01*
X121855952Y-178584819D02*
X121760714Y-178632438D01*
X121760714Y-178632438D02*
X121713095Y-178680057D01*
X121713095Y-178680057D02*
X121665476Y-178775295D01*
X121665476Y-178775295D02*
X121665476Y-178870533D01*
X121665476Y-178870533D02*
X121713095Y-179013390D01*
X121713095Y-179013390D02*
X122284523Y-179584819D01*
X122284523Y-179584819D02*
X121665476Y-179584819D01*
X120760714Y-178584819D02*
X121236904Y-178584819D01*
X121236904Y-178584819D02*
X121284523Y-179061009D01*
X121284523Y-179061009D02*
X121236904Y-179013390D01*
X121236904Y-179013390D02*
X121141666Y-178965771D01*
X121141666Y-178965771D02*
X120903571Y-178965771D01*
X120903571Y-178965771D02*
X120808333Y-179013390D01*
X120808333Y-179013390D02*
X120760714Y-179061009D01*
X120760714Y-179061009D02*
X120713095Y-179156247D01*
X120713095Y-179156247D02*
X120713095Y-179394342D01*
X120713095Y-179394342D02*
X120760714Y-179489580D01*
X120760714Y-179489580D02*
X120808333Y-179537200D01*
X120808333Y-179537200D02*
X120903571Y-179584819D01*
X120903571Y-179584819D02*
X121141666Y-179584819D01*
X121141666Y-179584819D02*
X121236904Y-179537200D01*
X121236904Y-179537200D02*
X121284523Y-179489580D01*
X157838094Y-151279819D02*
X157838094Y-150279819D01*
X157838094Y-150279819D02*
X157599999Y-150279819D01*
X157599999Y-150279819D02*
X157457142Y-150327438D01*
X157457142Y-150327438D02*
X157361904Y-150422676D01*
X157361904Y-150422676D02*
X157314285Y-150517914D01*
X157314285Y-150517914D02*
X157266666Y-150708390D01*
X157266666Y-150708390D02*
X157266666Y-150851247D01*
X157266666Y-150851247D02*
X157314285Y-151041723D01*
X157314285Y-151041723D02*
X157361904Y-151136961D01*
X157361904Y-151136961D02*
X157457142Y-151232200D01*
X157457142Y-151232200D02*
X157599999Y-151279819D01*
X157599999Y-151279819D02*
X157838094Y-151279819D01*
X156409523Y-150279819D02*
X156599999Y-150279819D01*
X156599999Y-150279819D02*
X156695237Y-150327438D01*
X156695237Y-150327438D02*
X156742856Y-150375057D01*
X156742856Y-150375057D02*
X156838094Y-150517914D01*
X156838094Y-150517914D02*
X156885713Y-150708390D01*
X156885713Y-150708390D02*
X156885713Y-151089342D01*
X156885713Y-151089342D02*
X156838094Y-151184580D01*
X156838094Y-151184580D02*
X156790475Y-151232200D01*
X156790475Y-151232200D02*
X156695237Y-151279819D01*
X156695237Y-151279819D02*
X156504761Y-151279819D01*
X156504761Y-151279819D02*
X156409523Y-151232200D01*
X156409523Y-151232200D02*
X156361904Y-151184580D01*
X156361904Y-151184580D02*
X156314285Y-151089342D01*
X156314285Y-151089342D02*
X156314285Y-150851247D01*
X156314285Y-150851247D02*
X156361904Y-150756009D01*
X156361904Y-150756009D02*
X156409523Y-150708390D01*
X156409523Y-150708390D02*
X156504761Y-150660771D01*
X156504761Y-150660771D02*
X156695237Y-150660771D01*
X156695237Y-150660771D02*
X156790475Y-150708390D01*
X156790475Y-150708390D02*
X156838094Y-150756009D01*
X156838094Y-150756009D02*
X156885713Y-150851247D01*
X138788094Y-128254819D02*
X138788094Y-127254819D01*
X138788094Y-127254819D02*
X138549999Y-127254819D01*
X138549999Y-127254819D02*
X138407142Y-127302438D01*
X138407142Y-127302438D02*
X138311904Y-127397676D01*
X138311904Y-127397676D02*
X138264285Y-127492914D01*
X138264285Y-127492914D02*
X138216666Y-127683390D01*
X138216666Y-127683390D02*
X138216666Y-127826247D01*
X138216666Y-127826247D02*
X138264285Y-128016723D01*
X138264285Y-128016723D02*
X138311904Y-128111961D01*
X138311904Y-128111961D02*
X138407142Y-128207200D01*
X138407142Y-128207200D02*
X138549999Y-128254819D01*
X138549999Y-128254819D02*
X138788094Y-128254819D01*
X137835713Y-127350057D02*
X137788094Y-127302438D01*
X137788094Y-127302438D02*
X137692856Y-127254819D01*
X137692856Y-127254819D02*
X137454761Y-127254819D01*
X137454761Y-127254819D02*
X137359523Y-127302438D01*
X137359523Y-127302438D02*
X137311904Y-127350057D01*
X137311904Y-127350057D02*
X137264285Y-127445295D01*
X137264285Y-127445295D02*
X137264285Y-127540533D01*
X137264285Y-127540533D02*
X137311904Y-127683390D01*
X137311904Y-127683390D02*
X137883332Y-128254819D01*
X137883332Y-128254819D02*
X137264285Y-128254819D01*
X138629580Y-108833333D02*
X138677200Y-108785714D01*
X138677200Y-108785714D02*
X138724819Y-108642857D01*
X138724819Y-108642857D02*
X138724819Y-108547619D01*
X138724819Y-108547619D02*
X138677200Y-108404762D01*
X138677200Y-108404762D02*
X138581961Y-108309524D01*
X138581961Y-108309524D02*
X138486723Y-108261905D01*
X138486723Y-108261905D02*
X138296247Y-108214286D01*
X138296247Y-108214286D02*
X138153390Y-108214286D01*
X138153390Y-108214286D02*
X137962914Y-108261905D01*
X137962914Y-108261905D02*
X137867676Y-108309524D01*
X137867676Y-108309524D02*
X137772438Y-108404762D01*
X137772438Y-108404762D02*
X137724819Y-108547619D01*
X137724819Y-108547619D02*
X137724819Y-108642857D01*
X137724819Y-108642857D02*
X137772438Y-108785714D01*
X137772438Y-108785714D02*
X137820057Y-108833333D01*
X138724819Y-109785714D02*
X138724819Y-109214286D01*
X138724819Y-109500000D02*
X137724819Y-109500000D01*
X137724819Y-109500000D02*
X137867676Y-109404762D01*
X137867676Y-109404762D02*
X137962914Y-109309524D01*
X137962914Y-109309524D02*
X138010533Y-109214286D01*
X111867857Y-121189580D02*
X111915476Y-121237200D01*
X111915476Y-121237200D02*
X112058333Y-121284819D01*
X112058333Y-121284819D02*
X112153571Y-121284819D01*
X112153571Y-121284819D02*
X112296428Y-121237200D01*
X112296428Y-121237200D02*
X112391666Y-121141961D01*
X112391666Y-121141961D02*
X112439285Y-121046723D01*
X112439285Y-121046723D02*
X112486904Y-120856247D01*
X112486904Y-120856247D02*
X112486904Y-120713390D01*
X112486904Y-120713390D02*
X112439285Y-120522914D01*
X112439285Y-120522914D02*
X112391666Y-120427676D01*
X112391666Y-120427676D02*
X112296428Y-120332438D01*
X112296428Y-120332438D02*
X112153571Y-120284819D01*
X112153571Y-120284819D02*
X112058333Y-120284819D01*
X112058333Y-120284819D02*
X111915476Y-120332438D01*
X111915476Y-120332438D02*
X111867857Y-120380057D01*
X110915476Y-121284819D02*
X111486904Y-121284819D01*
X111201190Y-121284819D02*
X111201190Y-120284819D01*
X111201190Y-120284819D02*
X111296428Y-120427676D01*
X111296428Y-120427676D02*
X111391666Y-120522914D01*
X111391666Y-120522914D02*
X111486904Y-120570533D01*
X110010714Y-120284819D02*
X110486904Y-120284819D01*
X110486904Y-120284819D02*
X110534523Y-120761009D01*
X110534523Y-120761009D02*
X110486904Y-120713390D01*
X110486904Y-120713390D02*
X110391666Y-120665771D01*
X110391666Y-120665771D02*
X110153571Y-120665771D01*
X110153571Y-120665771D02*
X110058333Y-120713390D01*
X110058333Y-120713390D02*
X110010714Y-120761009D01*
X110010714Y-120761009D02*
X109963095Y-120856247D01*
X109963095Y-120856247D02*
X109963095Y-121094342D01*
X109963095Y-121094342D02*
X110010714Y-121189580D01*
X110010714Y-121189580D02*
X110058333Y-121237200D01*
X110058333Y-121237200D02*
X110153571Y-121284819D01*
X110153571Y-121284819D02*
X110391666Y-121284819D01*
X110391666Y-121284819D02*
X110486904Y-121237200D01*
X110486904Y-121237200D02*
X110534523Y-121189580D01*
X127741666Y-124189580D02*
X127789285Y-124237200D01*
X127789285Y-124237200D02*
X127932142Y-124284819D01*
X127932142Y-124284819D02*
X128027380Y-124284819D01*
X128027380Y-124284819D02*
X128170237Y-124237200D01*
X128170237Y-124237200D02*
X128265475Y-124141961D01*
X128265475Y-124141961D02*
X128313094Y-124046723D01*
X128313094Y-124046723D02*
X128360713Y-123856247D01*
X128360713Y-123856247D02*
X128360713Y-123713390D01*
X128360713Y-123713390D02*
X128313094Y-123522914D01*
X128313094Y-123522914D02*
X128265475Y-123427676D01*
X128265475Y-123427676D02*
X128170237Y-123332438D01*
X128170237Y-123332438D02*
X128027380Y-123284819D01*
X128027380Y-123284819D02*
X127932142Y-123284819D01*
X127932142Y-123284819D02*
X127789285Y-123332438D01*
X127789285Y-123332438D02*
X127741666Y-123380057D01*
X127408332Y-123284819D02*
X126789285Y-123284819D01*
X126789285Y-123284819D02*
X127122618Y-123665771D01*
X127122618Y-123665771D02*
X126979761Y-123665771D01*
X126979761Y-123665771D02*
X126884523Y-123713390D01*
X126884523Y-123713390D02*
X126836904Y-123761009D01*
X126836904Y-123761009D02*
X126789285Y-123856247D01*
X126789285Y-123856247D02*
X126789285Y-124094342D01*
X126789285Y-124094342D02*
X126836904Y-124189580D01*
X126836904Y-124189580D02*
X126884523Y-124237200D01*
X126884523Y-124237200D02*
X126979761Y-124284819D01*
X126979761Y-124284819D02*
X127265475Y-124284819D01*
X127265475Y-124284819D02*
X127360713Y-124237200D01*
X127360713Y-124237200D02*
X127408332Y-124189580D01*
X122817857Y-141689580D02*
X122865476Y-141737200D01*
X122865476Y-141737200D02*
X123008333Y-141784819D01*
X123008333Y-141784819D02*
X123103571Y-141784819D01*
X123103571Y-141784819D02*
X123246428Y-141737200D01*
X123246428Y-141737200D02*
X123341666Y-141641961D01*
X123341666Y-141641961D02*
X123389285Y-141546723D01*
X123389285Y-141546723D02*
X123436904Y-141356247D01*
X123436904Y-141356247D02*
X123436904Y-141213390D01*
X123436904Y-141213390D02*
X123389285Y-141022914D01*
X123389285Y-141022914D02*
X123341666Y-140927676D01*
X123341666Y-140927676D02*
X123246428Y-140832438D01*
X123246428Y-140832438D02*
X123103571Y-140784819D01*
X123103571Y-140784819D02*
X123008333Y-140784819D01*
X123008333Y-140784819D02*
X122865476Y-140832438D01*
X122865476Y-140832438D02*
X122817857Y-140880057D01*
X121865476Y-141784819D02*
X122436904Y-141784819D01*
X122151190Y-141784819D02*
X122151190Y-140784819D01*
X122151190Y-140784819D02*
X122246428Y-140927676D01*
X122246428Y-140927676D02*
X122341666Y-141022914D01*
X122341666Y-141022914D02*
X122436904Y-141070533D01*
X121389285Y-141784819D02*
X121198809Y-141784819D01*
X121198809Y-141784819D02*
X121103571Y-141737200D01*
X121103571Y-141737200D02*
X121055952Y-141689580D01*
X121055952Y-141689580D02*
X120960714Y-141546723D01*
X120960714Y-141546723D02*
X120913095Y-141356247D01*
X120913095Y-141356247D02*
X120913095Y-140975295D01*
X120913095Y-140975295D02*
X120960714Y-140880057D01*
X120960714Y-140880057D02*
X121008333Y-140832438D01*
X121008333Y-140832438D02*
X121103571Y-140784819D01*
X121103571Y-140784819D02*
X121294047Y-140784819D01*
X121294047Y-140784819D02*
X121389285Y-140832438D01*
X121389285Y-140832438D02*
X121436904Y-140880057D01*
X121436904Y-140880057D02*
X121484523Y-140975295D01*
X121484523Y-140975295D02*
X121484523Y-141213390D01*
X121484523Y-141213390D02*
X121436904Y-141308628D01*
X121436904Y-141308628D02*
X121389285Y-141356247D01*
X121389285Y-141356247D02*
X121294047Y-141403866D01*
X121294047Y-141403866D02*
X121103571Y-141403866D01*
X121103571Y-141403866D02*
X121008333Y-141356247D01*
X121008333Y-141356247D02*
X120960714Y-141308628D01*
X120960714Y-141308628D02*
X120913095Y-141213390D01*
X127654819Y-106010714D02*
X126654819Y-106010714D01*
X126654819Y-106010714D02*
X126654819Y-106248809D01*
X126654819Y-106248809D02*
X126702438Y-106391666D01*
X126702438Y-106391666D02*
X126797676Y-106486904D01*
X126797676Y-106486904D02*
X126892914Y-106534523D01*
X126892914Y-106534523D02*
X127083390Y-106582142D01*
X127083390Y-106582142D02*
X127226247Y-106582142D01*
X127226247Y-106582142D02*
X127416723Y-106534523D01*
X127416723Y-106534523D02*
X127511961Y-106486904D01*
X127511961Y-106486904D02*
X127607200Y-106391666D01*
X127607200Y-106391666D02*
X127654819Y-106248809D01*
X127654819Y-106248809D02*
X127654819Y-106010714D01*
X127654819Y-107534523D02*
X127654819Y-106963095D01*
X127654819Y-107248809D02*
X126654819Y-107248809D01*
X126654819Y-107248809D02*
X126797676Y-107153571D01*
X126797676Y-107153571D02*
X126892914Y-107058333D01*
X126892914Y-107058333D02*
X126940533Y-106963095D01*
X126750057Y-107915476D02*
X126702438Y-107963095D01*
X126702438Y-107963095D02*
X126654819Y-108058333D01*
X126654819Y-108058333D02*
X126654819Y-108296428D01*
X126654819Y-108296428D02*
X126702438Y-108391666D01*
X126702438Y-108391666D02*
X126750057Y-108439285D01*
X126750057Y-108439285D02*
X126845295Y-108486904D01*
X126845295Y-108486904D02*
X126940533Y-108486904D01*
X126940533Y-108486904D02*
X127083390Y-108439285D01*
X127083390Y-108439285D02*
X127654819Y-107867857D01*
X127654819Y-107867857D02*
X127654819Y-108486904D01*
X124962704Y-110196428D02*
X124962704Y-110653571D01*
X124962704Y-110424999D02*
X125762704Y-110424999D01*
X125762704Y-110424999D02*
X125648419Y-110501190D01*
X125648419Y-110501190D02*
X125572228Y-110577380D01*
X125572228Y-110577380D02*
X125534133Y-110653571D01*
X154439285Y-181454819D02*
X154439285Y-180454819D01*
X154439285Y-180454819D02*
X154201190Y-180454819D01*
X154201190Y-180454819D02*
X154058333Y-180502438D01*
X154058333Y-180502438D02*
X153963095Y-180597676D01*
X153963095Y-180597676D02*
X153915476Y-180692914D01*
X153915476Y-180692914D02*
X153867857Y-180883390D01*
X153867857Y-180883390D02*
X153867857Y-181026247D01*
X153867857Y-181026247D02*
X153915476Y-181216723D01*
X153915476Y-181216723D02*
X153963095Y-181311961D01*
X153963095Y-181311961D02*
X154058333Y-181407200D01*
X154058333Y-181407200D02*
X154201190Y-181454819D01*
X154201190Y-181454819D02*
X154439285Y-181454819D01*
X152915476Y-181454819D02*
X153486904Y-181454819D01*
X153201190Y-181454819D02*
X153201190Y-180454819D01*
X153201190Y-180454819D02*
X153296428Y-180597676D01*
X153296428Y-180597676D02*
X153391666Y-180692914D01*
X153391666Y-180692914D02*
X153486904Y-180740533D01*
X152058333Y-180454819D02*
X152248809Y-180454819D01*
X152248809Y-180454819D02*
X152344047Y-180502438D01*
X152344047Y-180502438D02*
X152391666Y-180550057D01*
X152391666Y-180550057D02*
X152486904Y-180692914D01*
X152486904Y-180692914D02*
X152534523Y-180883390D01*
X152534523Y-180883390D02*
X152534523Y-181264342D01*
X152534523Y-181264342D02*
X152486904Y-181359580D01*
X152486904Y-181359580D02*
X152439285Y-181407200D01*
X152439285Y-181407200D02*
X152344047Y-181454819D01*
X152344047Y-181454819D02*
X152153571Y-181454819D01*
X152153571Y-181454819D02*
X152058333Y-181407200D01*
X152058333Y-181407200D02*
X152010714Y-181359580D01*
X152010714Y-181359580D02*
X151963095Y-181264342D01*
X151963095Y-181264342D02*
X151963095Y-181026247D01*
X151963095Y-181026247D02*
X152010714Y-180931009D01*
X152010714Y-180931009D02*
X152058333Y-180883390D01*
X152058333Y-180883390D02*
X152153571Y-180835771D01*
X152153571Y-180835771D02*
X152344047Y-180835771D01*
X152344047Y-180835771D02*
X152439285Y-180883390D01*
X152439285Y-180883390D02*
X152486904Y-180931009D01*
X152486904Y-180931009D02*
X152534523Y-181026247D01*
X156196428Y-183237295D02*
X156653571Y-183237295D01*
X156424999Y-183237295D02*
X156424999Y-182437295D01*
X156424999Y-182437295D02*
X156501190Y-182551580D01*
X156501190Y-182551580D02*
X156577380Y-182627771D01*
X156577380Y-182627771D02*
X156653571Y-182665866D01*
X165739285Y-102454819D02*
X165739285Y-101454819D01*
X165739285Y-101454819D02*
X165501190Y-101454819D01*
X165501190Y-101454819D02*
X165358333Y-101502438D01*
X165358333Y-101502438D02*
X165263095Y-101597676D01*
X165263095Y-101597676D02*
X165215476Y-101692914D01*
X165215476Y-101692914D02*
X165167857Y-101883390D01*
X165167857Y-101883390D02*
X165167857Y-102026247D01*
X165167857Y-102026247D02*
X165215476Y-102216723D01*
X165215476Y-102216723D02*
X165263095Y-102311961D01*
X165263095Y-102311961D02*
X165358333Y-102407200D01*
X165358333Y-102407200D02*
X165501190Y-102454819D01*
X165501190Y-102454819D02*
X165739285Y-102454819D01*
X164215476Y-102454819D02*
X164786904Y-102454819D01*
X164501190Y-102454819D02*
X164501190Y-101454819D01*
X164501190Y-101454819D02*
X164596428Y-101597676D01*
X164596428Y-101597676D02*
X164691666Y-101692914D01*
X164691666Y-101692914D02*
X164786904Y-101740533D01*
X163596428Y-101454819D02*
X163501190Y-101454819D01*
X163501190Y-101454819D02*
X163405952Y-101502438D01*
X163405952Y-101502438D02*
X163358333Y-101550057D01*
X163358333Y-101550057D02*
X163310714Y-101645295D01*
X163310714Y-101645295D02*
X163263095Y-101835771D01*
X163263095Y-101835771D02*
X163263095Y-102073866D01*
X163263095Y-102073866D02*
X163310714Y-102264342D01*
X163310714Y-102264342D02*
X163358333Y-102359580D01*
X163358333Y-102359580D02*
X163405952Y-102407200D01*
X163405952Y-102407200D02*
X163501190Y-102454819D01*
X163501190Y-102454819D02*
X163596428Y-102454819D01*
X163596428Y-102454819D02*
X163691666Y-102407200D01*
X163691666Y-102407200D02*
X163739285Y-102359580D01*
X163739285Y-102359580D02*
X163786904Y-102264342D01*
X163786904Y-102264342D02*
X163834523Y-102073866D01*
X163834523Y-102073866D02*
X163834523Y-101835771D01*
X163834523Y-101835771D02*
X163786904Y-101645295D01*
X163786904Y-101645295D02*
X163739285Y-101550057D01*
X163739285Y-101550057D02*
X163691666Y-101502438D01*
X163691666Y-101502438D02*
X163596428Y-101454819D01*
X167496428Y-104237295D02*
X167953571Y-104237295D01*
X167724999Y-104237295D02*
X167724999Y-103437295D01*
X167724999Y-103437295D02*
X167801190Y-103551580D01*
X167801190Y-103551580D02*
X167877380Y-103627771D01*
X167877380Y-103627771D02*
X167953571Y-103665866D01*
X151339285Y-102454819D02*
X151339285Y-101454819D01*
X151339285Y-101454819D02*
X151101190Y-101454819D01*
X151101190Y-101454819D02*
X150958333Y-101502438D01*
X150958333Y-101502438D02*
X150863095Y-101597676D01*
X150863095Y-101597676D02*
X150815476Y-101692914D01*
X150815476Y-101692914D02*
X150767857Y-101883390D01*
X150767857Y-101883390D02*
X150767857Y-102026247D01*
X150767857Y-102026247D02*
X150815476Y-102216723D01*
X150815476Y-102216723D02*
X150863095Y-102311961D01*
X150863095Y-102311961D02*
X150958333Y-102407200D01*
X150958333Y-102407200D02*
X151101190Y-102454819D01*
X151101190Y-102454819D02*
X151339285Y-102454819D01*
X149815476Y-102454819D02*
X150386904Y-102454819D01*
X150101190Y-102454819D02*
X150101190Y-101454819D01*
X150101190Y-101454819D02*
X150196428Y-101597676D01*
X150196428Y-101597676D02*
X150291666Y-101692914D01*
X150291666Y-101692914D02*
X150386904Y-101740533D01*
X148863095Y-102454819D02*
X149434523Y-102454819D01*
X149148809Y-102454819D02*
X149148809Y-101454819D01*
X149148809Y-101454819D02*
X149244047Y-101597676D01*
X149244047Y-101597676D02*
X149339285Y-101692914D01*
X149339285Y-101692914D02*
X149434523Y-101740533D01*
X153096428Y-104237295D02*
X153553571Y-104237295D01*
X153324999Y-104237295D02*
X153324999Y-103437295D01*
X153324999Y-103437295D02*
X153401190Y-103551580D01*
X153401190Y-103551580D02*
X153477380Y-103627771D01*
X153477380Y-103627771D02*
X153553571Y-103665866D01*
X119638094Y-166154819D02*
X119638094Y-165154819D01*
X119638094Y-165154819D02*
X119399999Y-165154819D01*
X119399999Y-165154819D02*
X119257142Y-165202438D01*
X119257142Y-165202438D02*
X119161904Y-165297676D01*
X119161904Y-165297676D02*
X119114285Y-165392914D01*
X119114285Y-165392914D02*
X119066666Y-165583390D01*
X119066666Y-165583390D02*
X119066666Y-165726247D01*
X119066666Y-165726247D02*
X119114285Y-165916723D01*
X119114285Y-165916723D02*
X119161904Y-166011961D01*
X119161904Y-166011961D02*
X119257142Y-166107200D01*
X119257142Y-166107200D02*
X119399999Y-166154819D01*
X119399999Y-166154819D02*
X119638094Y-166154819D01*
X118733332Y-165154819D02*
X118066666Y-165154819D01*
X118066666Y-165154819D02*
X118495237Y-166154819D01*
X119738094Y-147154819D02*
X119738094Y-146154819D01*
X119738094Y-146154819D02*
X119499999Y-146154819D01*
X119499999Y-146154819D02*
X119357142Y-146202438D01*
X119357142Y-146202438D02*
X119261904Y-146297676D01*
X119261904Y-146297676D02*
X119214285Y-146392914D01*
X119214285Y-146392914D02*
X119166666Y-146583390D01*
X119166666Y-146583390D02*
X119166666Y-146726247D01*
X119166666Y-146726247D02*
X119214285Y-146916723D01*
X119214285Y-146916723D02*
X119261904Y-147011961D01*
X119261904Y-147011961D02*
X119357142Y-147107200D01*
X119357142Y-147107200D02*
X119499999Y-147154819D01*
X119499999Y-147154819D02*
X119738094Y-147154819D01*
X118309523Y-146488152D02*
X118309523Y-147154819D01*
X118547618Y-146107200D02*
X118785713Y-146821485D01*
X118785713Y-146821485D02*
X118166666Y-146821485D01*
X141167857Y-124189580D02*
X141215476Y-124237200D01*
X141215476Y-124237200D02*
X141358333Y-124284819D01*
X141358333Y-124284819D02*
X141453571Y-124284819D01*
X141453571Y-124284819D02*
X141596428Y-124237200D01*
X141596428Y-124237200D02*
X141691666Y-124141961D01*
X141691666Y-124141961D02*
X141739285Y-124046723D01*
X141739285Y-124046723D02*
X141786904Y-123856247D01*
X141786904Y-123856247D02*
X141786904Y-123713390D01*
X141786904Y-123713390D02*
X141739285Y-123522914D01*
X141739285Y-123522914D02*
X141691666Y-123427676D01*
X141691666Y-123427676D02*
X141596428Y-123332438D01*
X141596428Y-123332438D02*
X141453571Y-123284819D01*
X141453571Y-123284819D02*
X141358333Y-123284819D01*
X141358333Y-123284819D02*
X141215476Y-123332438D01*
X141215476Y-123332438D02*
X141167857Y-123380057D01*
X140215476Y-124284819D02*
X140786904Y-124284819D01*
X140501190Y-124284819D02*
X140501190Y-123284819D01*
X140501190Y-123284819D02*
X140596428Y-123427676D01*
X140596428Y-123427676D02*
X140691666Y-123522914D01*
X140691666Y-123522914D02*
X140786904Y-123570533D01*
X139596428Y-123284819D02*
X139501190Y-123284819D01*
X139501190Y-123284819D02*
X139405952Y-123332438D01*
X139405952Y-123332438D02*
X139358333Y-123380057D01*
X139358333Y-123380057D02*
X139310714Y-123475295D01*
X139310714Y-123475295D02*
X139263095Y-123665771D01*
X139263095Y-123665771D02*
X139263095Y-123903866D01*
X139263095Y-123903866D02*
X139310714Y-124094342D01*
X139310714Y-124094342D02*
X139358333Y-124189580D01*
X139358333Y-124189580D02*
X139405952Y-124237200D01*
X139405952Y-124237200D02*
X139501190Y-124284819D01*
X139501190Y-124284819D02*
X139596428Y-124284819D01*
X139596428Y-124284819D02*
X139691666Y-124237200D01*
X139691666Y-124237200D02*
X139739285Y-124189580D01*
X139739285Y-124189580D02*
X139786904Y-124094342D01*
X139786904Y-124094342D02*
X139834523Y-123903866D01*
X139834523Y-123903866D02*
X139834523Y-123665771D01*
X139834523Y-123665771D02*
X139786904Y-123475295D01*
X139786904Y-123475295D02*
X139739285Y-123380057D01*
X139739285Y-123380057D02*
X139691666Y-123332438D01*
X139691666Y-123332438D02*
X139596428Y-123284819D01*
X136789580Y-112858333D02*
X136837200Y-112810714D01*
X136837200Y-112810714D02*
X136884819Y-112667857D01*
X136884819Y-112667857D02*
X136884819Y-112572619D01*
X136884819Y-112572619D02*
X136837200Y-112429762D01*
X136837200Y-112429762D02*
X136741961Y-112334524D01*
X136741961Y-112334524D02*
X136646723Y-112286905D01*
X136646723Y-112286905D02*
X136456247Y-112239286D01*
X136456247Y-112239286D02*
X136313390Y-112239286D01*
X136313390Y-112239286D02*
X136122914Y-112286905D01*
X136122914Y-112286905D02*
X136027676Y-112334524D01*
X136027676Y-112334524D02*
X135932438Y-112429762D01*
X135932438Y-112429762D02*
X135884819Y-112572619D01*
X135884819Y-112572619D02*
X135884819Y-112667857D01*
X135884819Y-112667857D02*
X135932438Y-112810714D01*
X135932438Y-112810714D02*
X135980057Y-112858333D01*
X136313390Y-113429762D02*
X136265771Y-113334524D01*
X136265771Y-113334524D02*
X136218152Y-113286905D01*
X136218152Y-113286905D02*
X136122914Y-113239286D01*
X136122914Y-113239286D02*
X136075295Y-113239286D01*
X136075295Y-113239286D02*
X135980057Y-113286905D01*
X135980057Y-113286905D02*
X135932438Y-113334524D01*
X135932438Y-113334524D02*
X135884819Y-113429762D01*
X135884819Y-113429762D02*
X135884819Y-113620238D01*
X135884819Y-113620238D02*
X135932438Y-113715476D01*
X135932438Y-113715476D02*
X135980057Y-113763095D01*
X135980057Y-113763095D02*
X136075295Y-113810714D01*
X136075295Y-113810714D02*
X136122914Y-113810714D01*
X136122914Y-113810714D02*
X136218152Y-113763095D01*
X136218152Y-113763095D02*
X136265771Y-113715476D01*
X136265771Y-113715476D02*
X136313390Y-113620238D01*
X136313390Y-113620238D02*
X136313390Y-113429762D01*
X136313390Y-113429762D02*
X136361009Y-113334524D01*
X136361009Y-113334524D02*
X136408628Y-113286905D01*
X136408628Y-113286905D02*
X136503866Y-113239286D01*
X136503866Y-113239286D02*
X136694342Y-113239286D01*
X136694342Y-113239286D02*
X136789580Y-113286905D01*
X136789580Y-113286905D02*
X136837200Y-113334524D01*
X136837200Y-113334524D02*
X136884819Y-113429762D01*
X136884819Y-113429762D02*
X136884819Y-113620238D01*
X136884819Y-113620238D02*
X136837200Y-113715476D01*
X136837200Y-113715476D02*
X136789580Y-113763095D01*
X136789580Y-113763095D02*
X136694342Y-113810714D01*
X136694342Y-113810714D02*
X136503866Y-113810714D01*
X136503866Y-113810714D02*
X136408628Y-113763095D01*
X136408628Y-113763095D02*
X136361009Y-113715476D01*
X136361009Y-113715476D02*
X136313390Y-113620238D01*
X127791666Y-120389580D02*
X127839285Y-120437200D01*
X127839285Y-120437200D02*
X127982142Y-120484819D01*
X127982142Y-120484819D02*
X128077380Y-120484819D01*
X128077380Y-120484819D02*
X128220237Y-120437200D01*
X128220237Y-120437200D02*
X128315475Y-120341961D01*
X128315475Y-120341961D02*
X128363094Y-120246723D01*
X128363094Y-120246723D02*
X128410713Y-120056247D01*
X128410713Y-120056247D02*
X128410713Y-119913390D01*
X128410713Y-119913390D02*
X128363094Y-119722914D01*
X128363094Y-119722914D02*
X128315475Y-119627676D01*
X128315475Y-119627676D02*
X128220237Y-119532438D01*
X128220237Y-119532438D02*
X128077380Y-119484819D01*
X128077380Y-119484819D02*
X127982142Y-119484819D01*
X127982142Y-119484819D02*
X127839285Y-119532438D01*
X127839285Y-119532438D02*
X127791666Y-119580057D01*
X126886904Y-119484819D02*
X127363094Y-119484819D01*
X127363094Y-119484819D02*
X127410713Y-119961009D01*
X127410713Y-119961009D02*
X127363094Y-119913390D01*
X127363094Y-119913390D02*
X127267856Y-119865771D01*
X127267856Y-119865771D02*
X127029761Y-119865771D01*
X127029761Y-119865771D02*
X126934523Y-119913390D01*
X126934523Y-119913390D02*
X126886904Y-119961009D01*
X126886904Y-119961009D02*
X126839285Y-120056247D01*
X126839285Y-120056247D02*
X126839285Y-120294342D01*
X126839285Y-120294342D02*
X126886904Y-120389580D01*
X126886904Y-120389580D02*
X126934523Y-120437200D01*
X126934523Y-120437200D02*
X127029761Y-120484819D01*
X127029761Y-120484819D02*
X127267856Y-120484819D01*
X127267856Y-120484819D02*
X127363094Y-120437200D01*
X127363094Y-120437200D02*
X127410713Y-120389580D01*
X129212319Y-119233095D02*
X130021842Y-119233095D01*
X130021842Y-119233095D02*
X130117080Y-119280714D01*
X130117080Y-119280714D02*
X130164700Y-119328333D01*
X130164700Y-119328333D02*
X130212319Y-119423571D01*
X130212319Y-119423571D02*
X130212319Y-119614047D01*
X130212319Y-119614047D02*
X130164700Y-119709285D01*
X130164700Y-119709285D02*
X130117080Y-119756904D01*
X130117080Y-119756904D02*
X130021842Y-119804523D01*
X130021842Y-119804523D02*
X129212319Y-119804523D01*
X130212319Y-120804523D02*
X130212319Y-120233095D01*
X130212319Y-120518809D02*
X129212319Y-120518809D01*
X129212319Y-120518809D02*
X129355176Y-120423571D01*
X129355176Y-120423571D02*
X129450414Y-120328333D01*
X129450414Y-120328333D02*
X129498033Y-120233095D01*
X142628628Y-119023809D02*
X143104819Y-119023809D01*
X142104819Y-118690476D02*
X142628628Y-119023809D01*
X142628628Y-119023809D02*
X142104819Y-119357142D01*
X143104819Y-120214285D02*
X143104819Y-119642857D01*
X143104819Y-119928571D02*
X142104819Y-119928571D01*
X142104819Y-119928571D02*
X142247676Y-119833333D01*
X142247676Y-119833333D02*
X142342914Y-119738095D01*
X142342914Y-119738095D02*
X142390533Y-119642857D01*
X157788094Y-132254819D02*
X157788094Y-131254819D01*
X157788094Y-131254819D02*
X157549999Y-131254819D01*
X157549999Y-131254819D02*
X157407142Y-131302438D01*
X157407142Y-131302438D02*
X157311904Y-131397676D01*
X157311904Y-131397676D02*
X157264285Y-131492914D01*
X157264285Y-131492914D02*
X157216666Y-131683390D01*
X157216666Y-131683390D02*
X157216666Y-131826247D01*
X157216666Y-131826247D02*
X157264285Y-132016723D01*
X157264285Y-132016723D02*
X157311904Y-132111961D01*
X157311904Y-132111961D02*
X157407142Y-132207200D01*
X157407142Y-132207200D02*
X157549999Y-132254819D01*
X157549999Y-132254819D02*
X157788094Y-132254819D01*
X156883332Y-131254819D02*
X156264285Y-131254819D01*
X156264285Y-131254819D02*
X156597618Y-131635771D01*
X156597618Y-131635771D02*
X156454761Y-131635771D01*
X156454761Y-131635771D02*
X156359523Y-131683390D01*
X156359523Y-131683390D02*
X156311904Y-131731009D01*
X156311904Y-131731009D02*
X156264285Y-131826247D01*
X156264285Y-131826247D02*
X156264285Y-132064342D01*
X156264285Y-132064342D02*
X156311904Y-132159580D01*
X156311904Y-132159580D02*
X156359523Y-132207200D01*
X156359523Y-132207200D02*
X156454761Y-132254819D01*
X156454761Y-132254819D02*
X156740475Y-132254819D01*
X156740475Y-132254819D02*
X156835713Y-132207200D01*
X156835713Y-132207200D02*
X156883332Y-132159580D01*
X139189580Y-112858333D02*
X139237200Y-112810714D01*
X139237200Y-112810714D02*
X139284819Y-112667857D01*
X139284819Y-112667857D02*
X139284819Y-112572619D01*
X139284819Y-112572619D02*
X139237200Y-112429762D01*
X139237200Y-112429762D02*
X139141961Y-112334524D01*
X139141961Y-112334524D02*
X139046723Y-112286905D01*
X139046723Y-112286905D02*
X138856247Y-112239286D01*
X138856247Y-112239286D02*
X138713390Y-112239286D01*
X138713390Y-112239286D02*
X138522914Y-112286905D01*
X138522914Y-112286905D02*
X138427676Y-112334524D01*
X138427676Y-112334524D02*
X138332438Y-112429762D01*
X138332438Y-112429762D02*
X138284819Y-112572619D01*
X138284819Y-112572619D02*
X138284819Y-112667857D01*
X138284819Y-112667857D02*
X138332438Y-112810714D01*
X138332438Y-112810714D02*
X138380057Y-112858333D01*
X139284819Y-113334524D02*
X139284819Y-113525000D01*
X139284819Y-113525000D02*
X139237200Y-113620238D01*
X139237200Y-113620238D02*
X139189580Y-113667857D01*
X139189580Y-113667857D02*
X139046723Y-113763095D01*
X139046723Y-113763095D02*
X138856247Y-113810714D01*
X138856247Y-113810714D02*
X138475295Y-113810714D01*
X138475295Y-113810714D02*
X138380057Y-113763095D01*
X138380057Y-113763095D02*
X138332438Y-113715476D01*
X138332438Y-113715476D02*
X138284819Y-113620238D01*
X138284819Y-113620238D02*
X138284819Y-113429762D01*
X138284819Y-113429762D02*
X138332438Y-113334524D01*
X138332438Y-113334524D02*
X138380057Y-113286905D01*
X138380057Y-113286905D02*
X138475295Y-113239286D01*
X138475295Y-113239286D02*
X138713390Y-113239286D01*
X138713390Y-113239286D02*
X138808628Y-113286905D01*
X138808628Y-113286905D02*
X138856247Y-113334524D01*
X138856247Y-113334524D02*
X138903866Y-113429762D01*
X138903866Y-113429762D02*
X138903866Y-113620238D01*
X138903866Y-113620238D02*
X138856247Y-113715476D01*
X138856247Y-113715476D02*
X138808628Y-113763095D01*
X138808628Y-113763095D02*
X138713390Y-113810714D01*
X161017857Y-180189580D02*
X161065476Y-180237200D01*
X161065476Y-180237200D02*
X161208333Y-180284819D01*
X161208333Y-180284819D02*
X161303571Y-180284819D01*
X161303571Y-180284819D02*
X161446428Y-180237200D01*
X161446428Y-180237200D02*
X161541666Y-180141961D01*
X161541666Y-180141961D02*
X161589285Y-180046723D01*
X161589285Y-180046723D02*
X161636904Y-179856247D01*
X161636904Y-179856247D02*
X161636904Y-179713390D01*
X161636904Y-179713390D02*
X161589285Y-179522914D01*
X161589285Y-179522914D02*
X161541666Y-179427676D01*
X161541666Y-179427676D02*
X161446428Y-179332438D01*
X161446428Y-179332438D02*
X161303571Y-179284819D01*
X161303571Y-179284819D02*
X161208333Y-179284819D01*
X161208333Y-179284819D02*
X161065476Y-179332438D01*
X161065476Y-179332438D02*
X161017857Y-179380057D01*
X160636904Y-179380057D02*
X160589285Y-179332438D01*
X160589285Y-179332438D02*
X160494047Y-179284819D01*
X160494047Y-179284819D02*
X160255952Y-179284819D01*
X160255952Y-179284819D02*
X160160714Y-179332438D01*
X160160714Y-179332438D02*
X160113095Y-179380057D01*
X160113095Y-179380057D02*
X160065476Y-179475295D01*
X160065476Y-179475295D02*
X160065476Y-179570533D01*
X160065476Y-179570533D02*
X160113095Y-179713390D01*
X160113095Y-179713390D02*
X160684523Y-180284819D01*
X160684523Y-180284819D02*
X160065476Y-180284819D01*
X159732142Y-179284819D02*
X159065476Y-179284819D01*
X159065476Y-179284819D02*
X159494047Y-180284819D01*
X141884819Y-125058333D02*
X141408628Y-124725000D01*
X141884819Y-124486905D02*
X140884819Y-124486905D01*
X140884819Y-124486905D02*
X140884819Y-124867857D01*
X140884819Y-124867857D02*
X140932438Y-124963095D01*
X140932438Y-124963095D02*
X140980057Y-125010714D01*
X140980057Y-125010714D02*
X141075295Y-125058333D01*
X141075295Y-125058333D02*
X141218152Y-125058333D01*
X141218152Y-125058333D02*
X141313390Y-125010714D01*
X141313390Y-125010714D02*
X141361009Y-124963095D01*
X141361009Y-124963095D02*
X141408628Y-124867857D01*
X141408628Y-124867857D02*
X141408628Y-124486905D01*
X140884819Y-125391667D02*
X140884819Y-126010714D01*
X140884819Y-126010714D02*
X141265771Y-125677381D01*
X141265771Y-125677381D02*
X141265771Y-125820238D01*
X141265771Y-125820238D02*
X141313390Y-125915476D01*
X141313390Y-125915476D02*
X141361009Y-125963095D01*
X141361009Y-125963095D02*
X141456247Y-126010714D01*
X141456247Y-126010714D02*
X141694342Y-126010714D01*
X141694342Y-126010714D02*
X141789580Y-125963095D01*
X141789580Y-125963095D02*
X141837200Y-125915476D01*
X141837200Y-125915476D02*
X141884819Y-125820238D01*
X141884819Y-125820238D02*
X141884819Y-125534524D01*
X141884819Y-125534524D02*
X141837200Y-125439286D01*
X141837200Y-125439286D02*
X141789580Y-125391667D01*
X127939285Y-181454819D02*
X127939285Y-180454819D01*
X127939285Y-180454819D02*
X127701190Y-180454819D01*
X127701190Y-180454819D02*
X127558333Y-180502438D01*
X127558333Y-180502438D02*
X127463095Y-180597676D01*
X127463095Y-180597676D02*
X127415476Y-180692914D01*
X127415476Y-180692914D02*
X127367857Y-180883390D01*
X127367857Y-180883390D02*
X127367857Y-181026247D01*
X127367857Y-181026247D02*
X127415476Y-181216723D01*
X127415476Y-181216723D02*
X127463095Y-181311961D01*
X127463095Y-181311961D02*
X127558333Y-181407200D01*
X127558333Y-181407200D02*
X127701190Y-181454819D01*
X127701190Y-181454819D02*
X127939285Y-181454819D01*
X126415476Y-181454819D02*
X126986904Y-181454819D01*
X126701190Y-181454819D02*
X126701190Y-180454819D01*
X126701190Y-180454819D02*
X126796428Y-180597676D01*
X126796428Y-180597676D02*
X126891666Y-180692914D01*
X126891666Y-180692914D02*
X126986904Y-180740533D01*
X125558333Y-180788152D02*
X125558333Y-181454819D01*
X125796428Y-180407200D02*
X126034523Y-181121485D01*
X126034523Y-181121485D02*
X125415476Y-181121485D01*
X129696428Y-183237295D02*
X130153571Y-183237295D01*
X129924999Y-183237295D02*
X129924999Y-182437295D01*
X129924999Y-182437295D02*
X130001190Y-182551580D01*
X130001190Y-182551580D02*
X130077380Y-182627771D01*
X130077380Y-182627771D02*
X130153571Y-182665866D01*
X131529580Y-112858333D02*
X131577200Y-112810714D01*
X131577200Y-112810714D02*
X131624819Y-112667857D01*
X131624819Y-112667857D02*
X131624819Y-112572619D01*
X131624819Y-112572619D02*
X131577200Y-112429762D01*
X131577200Y-112429762D02*
X131481961Y-112334524D01*
X131481961Y-112334524D02*
X131386723Y-112286905D01*
X131386723Y-112286905D02*
X131196247Y-112239286D01*
X131196247Y-112239286D02*
X131053390Y-112239286D01*
X131053390Y-112239286D02*
X130862914Y-112286905D01*
X130862914Y-112286905D02*
X130767676Y-112334524D01*
X130767676Y-112334524D02*
X130672438Y-112429762D01*
X130672438Y-112429762D02*
X130624819Y-112572619D01*
X130624819Y-112572619D02*
X130624819Y-112667857D01*
X130624819Y-112667857D02*
X130672438Y-112810714D01*
X130672438Y-112810714D02*
X130720057Y-112858333D01*
X130624819Y-113715476D02*
X130624819Y-113525000D01*
X130624819Y-113525000D02*
X130672438Y-113429762D01*
X130672438Y-113429762D02*
X130720057Y-113382143D01*
X130720057Y-113382143D02*
X130862914Y-113286905D01*
X130862914Y-113286905D02*
X131053390Y-113239286D01*
X131053390Y-113239286D02*
X131434342Y-113239286D01*
X131434342Y-113239286D02*
X131529580Y-113286905D01*
X131529580Y-113286905D02*
X131577200Y-113334524D01*
X131577200Y-113334524D02*
X131624819Y-113429762D01*
X131624819Y-113429762D02*
X131624819Y-113620238D01*
X131624819Y-113620238D02*
X131577200Y-113715476D01*
X131577200Y-113715476D02*
X131529580Y-113763095D01*
X131529580Y-113763095D02*
X131434342Y-113810714D01*
X131434342Y-113810714D02*
X131196247Y-113810714D01*
X131196247Y-113810714D02*
X131101009Y-113763095D01*
X131101009Y-113763095D02*
X131053390Y-113715476D01*
X131053390Y-113715476D02*
X131005771Y-113620238D01*
X131005771Y-113620238D02*
X131005771Y-113429762D01*
X131005771Y-113429762D02*
X131053390Y-113334524D01*
X131053390Y-113334524D02*
X131101009Y-113286905D01*
X131101009Y-113286905D02*
X131196247Y-113239286D01*
X130729580Y-109408333D02*
X130777200Y-109360714D01*
X130777200Y-109360714D02*
X130824819Y-109217857D01*
X130824819Y-109217857D02*
X130824819Y-109122619D01*
X130824819Y-109122619D02*
X130777200Y-108979762D01*
X130777200Y-108979762D02*
X130681961Y-108884524D01*
X130681961Y-108884524D02*
X130586723Y-108836905D01*
X130586723Y-108836905D02*
X130396247Y-108789286D01*
X130396247Y-108789286D02*
X130253390Y-108789286D01*
X130253390Y-108789286D02*
X130062914Y-108836905D01*
X130062914Y-108836905D02*
X129967676Y-108884524D01*
X129967676Y-108884524D02*
X129872438Y-108979762D01*
X129872438Y-108979762D02*
X129824819Y-109122619D01*
X129824819Y-109122619D02*
X129824819Y-109217857D01*
X129824819Y-109217857D02*
X129872438Y-109360714D01*
X129872438Y-109360714D02*
X129920057Y-109408333D01*
X129920057Y-109789286D02*
X129872438Y-109836905D01*
X129872438Y-109836905D02*
X129824819Y-109932143D01*
X129824819Y-109932143D02*
X129824819Y-110170238D01*
X129824819Y-110170238D02*
X129872438Y-110265476D01*
X129872438Y-110265476D02*
X129920057Y-110313095D01*
X129920057Y-110313095D02*
X130015295Y-110360714D01*
X130015295Y-110360714D02*
X130110533Y-110360714D01*
X130110533Y-110360714D02*
X130253390Y-110313095D01*
X130253390Y-110313095D02*
X130824819Y-109741667D01*
X130824819Y-109741667D02*
X130824819Y-110360714D01*
X160617857Y-160789580D02*
X160665476Y-160837200D01*
X160665476Y-160837200D02*
X160808333Y-160884819D01*
X160808333Y-160884819D02*
X160903571Y-160884819D01*
X160903571Y-160884819D02*
X161046428Y-160837200D01*
X161046428Y-160837200D02*
X161141666Y-160741961D01*
X161141666Y-160741961D02*
X161189285Y-160646723D01*
X161189285Y-160646723D02*
X161236904Y-160456247D01*
X161236904Y-160456247D02*
X161236904Y-160313390D01*
X161236904Y-160313390D02*
X161189285Y-160122914D01*
X161189285Y-160122914D02*
X161141666Y-160027676D01*
X161141666Y-160027676D02*
X161046428Y-159932438D01*
X161046428Y-159932438D02*
X160903571Y-159884819D01*
X160903571Y-159884819D02*
X160808333Y-159884819D01*
X160808333Y-159884819D02*
X160665476Y-159932438D01*
X160665476Y-159932438D02*
X160617857Y-159980057D01*
X160236904Y-159980057D02*
X160189285Y-159932438D01*
X160189285Y-159932438D02*
X160094047Y-159884819D01*
X160094047Y-159884819D02*
X159855952Y-159884819D01*
X159855952Y-159884819D02*
X159760714Y-159932438D01*
X159760714Y-159932438D02*
X159713095Y-159980057D01*
X159713095Y-159980057D02*
X159665476Y-160075295D01*
X159665476Y-160075295D02*
X159665476Y-160170533D01*
X159665476Y-160170533D02*
X159713095Y-160313390D01*
X159713095Y-160313390D02*
X160284523Y-160884819D01*
X160284523Y-160884819D02*
X159665476Y-160884819D01*
X159284523Y-159980057D02*
X159236904Y-159932438D01*
X159236904Y-159932438D02*
X159141666Y-159884819D01*
X159141666Y-159884819D02*
X158903571Y-159884819D01*
X158903571Y-159884819D02*
X158808333Y-159932438D01*
X158808333Y-159932438D02*
X158760714Y-159980057D01*
X158760714Y-159980057D02*
X158713095Y-160075295D01*
X158713095Y-160075295D02*
X158713095Y-160170533D01*
X158713095Y-160170533D02*
X158760714Y-160313390D01*
X158760714Y-160313390D02*
X159332142Y-160884819D01*
X159332142Y-160884819D02*
X158713095Y-160884819D01*
X160842857Y-141889580D02*
X160890476Y-141937200D01*
X160890476Y-141937200D02*
X161033333Y-141984819D01*
X161033333Y-141984819D02*
X161128571Y-141984819D01*
X161128571Y-141984819D02*
X161271428Y-141937200D01*
X161271428Y-141937200D02*
X161366666Y-141841961D01*
X161366666Y-141841961D02*
X161414285Y-141746723D01*
X161414285Y-141746723D02*
X161461904Y-141556247D01*
X161461904Y-141556247D02*
X161461904Y-141413390D01*
X161461904Y-141413390D02*
X161414285Y-141222914D01*
X161414285Y-141222914D02*
X161366666Y-141127676D01*
X161366666Y-141127676D02*
X161271428Y-141032438D01*
X161271428Y-141032438D02*
X161128571Y-140984819D01*
X161128571Y-140984819D02*
X161033333Y-140984819D01*
X161033333Y-140984819D02*
X160890476Y-141032438D01*
X160890476Y-141032438D02*
X160842857Y-141080057D01*
X160461904Y-141080057D02*
X160414285Y-141032438D01*
X160414285Y-141032438D02*
X160319047Y-140984819D01*
X160319047Y-140984819D02*
X160080952Y-140984819D01*
X160080952Y-140984819D02*
X159985714Y-141032438D01*
X159985714Y-141032438D02*
X159938095Y-141080057D01*
X159938095Y-141080057D02*
X159890476Y-141175295D01*
X159890476Y-141175295D02*
X159890476Y-141270533D01*
X159890476Y-141270533D02*
X159938095Y-141413390D01*
X159938095Y-141413390D02*
X160509523Y-141984819D01*
X160509523Y-141984819D02*
X159890476Y-141984819D01*
X158938095Y-141984819D02*
X159509523Y-141984819D01*
X159223809Y-141984819D02*
X159223809Y-140984819D01*
X159223809Y-140984819D02*
X159319047Y-141127676D01*
X159319047Y-141127676D02*
X159414285Y-141222914D01*
X159414285Y-141222914D02*
X159509523Y-141270533D01*
X108554819Y-143660714D02*
X107554819Y-143660714D01*
X107554819Y-143660714D02*
X107554819Y-143898809D01*
X107554819Y-143898809D02*
X107602438Y-144041666D01*
X107602438Y-144041666D02*
X107697676Y-144136904D01*
X107697676Y-144136904D02*
X107792914Y-144184523D01*
X107792914Y-144184523D02*
X107983390Y-144232142D01*
X107983390Y-144232142D02*
X108126247Y-144232142D01*
X108126247Y-144232142D02*
X108316723Y-144184523D01*
X108316723Y-144184523D02*
X108411961Y-144136904D01*
X108411961Y-144136904D02*
X108507200Y-144041666D01*
X108507200Y-144041666D02*
X108554819Y-143898809D01*
X108554819Y-143898809D02*
X108554819Y-143660714D01*
X108554819Y-145184523D02*
X108554819Y-144613095D01*
X108554819Y-144898809D02*
X107554819Y-144898809D01*
X107554819Y-144898809D02*
X107697676Y-144803571D01*
X107697676Y-144803571D02*
X107792914Y-144708333D01*
X107792914Y-144708333D02*
X107840533Y-144613095D01*
X107554819Y-145517857D02*
X107554819Y-146136904D01*
X107554819Y-146136904D02*
X107935771Y-145803571D01*
X107935771Y-145803571D02*
X107935771Y-145946428D01*
X107935771Y-145946428D02*
X107983390Y-146041666D01*
X107983390Y-146041666D02*
X108031009Y-146089285D01*
X108031009Y-146089285D02*
X108126247Y-146136904D01*
X108126247Y-146136904D02*
X108364342Y-146136904D01*
X108364342Y-146136904D02*
X108459580Y-146089285D01*
X108459580Y-146089285D02*
X108507200Y-146041666D01*
X108507200Y-146041666D02*
X108554819Y-145946428D01*
X108554819Y-145946428D02*
X108554819Y-145660714D01*
X108554819Y-145660714D02*
X108507200Y-145565476D01*
X108507200Y-145565476D02*
X108459580Y-145517857D01*
X105862704Y-147846428D02*
X105862704Y-148303571D01*
X105862704Y-148074999D02*
X106662704Y-148074999D01*
X106662704Y-148074999D02*
X106548419Y-148151190D01*
X106548419Y-148151190D02*
X106472228Y-148227380D01*
X106472228Y-148227380D02*
X106434133Y-148303571D01*
X157638094Y-170154819D02*
X157638094Y-169154819D01*
X157638094Y-169154819D02*
X157399999Y-169154819D01*
X157399999Y-169154819D02*
X157257142Y-169202438D01*
X157257142Y-169202438D02*
X157161904Y-169297676D01*
X157161904Y-169297676D02*
X157114285Y-169392914D01*
X157114285Y-169392914D02*
X157066666Y-169583390D01*
X157066666Y-169583390D02*
X157066666Y-169726247D01*
X157066666Y-169726247D02*
X157114285Y-169916723D01*
X157114285Y-169916723D02*
X157161904Y-170011961D01*
X157161904Y-170011961D02*
X157257142Y-170107200D01*
X157257142Y-170107200D02*
X157399999Y-170154819D01*
X157399999Y-170154819D02*
X157638094Y-170154819D01*
X156590475Y-170154819D02*
X156399999Y-170154819D01*
X156399999Y-170154819D02*
X156304761Y-170107200D01*
X156304761Y-170107200D02*
X156257142Y-170059580D01*
X156257142Y-170059580D02*
X156161904Y-169916723D01*
X156161904Y-169916723D02*
X156114285Y-169726247D01*
X156114285Y-169726247D02*
X156114285Y-169345295D01*
X156114285Y-169345295D02*
X156161904Y-169250057D01*
X156161904Y-169250057D02*
X156209523Y-169202438D01*
X156209523Y-169202438D02*
X156304761Y-169154819D01*
X156304761Y-169154819D02*
X156495237Y-169154819D01*
X156495237Y-169154819D02*
X156590475Y-169202438D01*
X156590475Y-169202438D02*
X156638094Y-169250057D01*
X156638094Y-169250057D02*
X156685713Y-169345295D01*
X156685713Y-169345295D02*
X156685713Y-169583390D01*
X156685713Y-169583390D02*
X156638094Y-169678628D01*
X156638094Y-169678628D02*
X156590475Y-169726247D01*
X156590475Y-169726247D02*
X156495237Y-169773866D01*
X156495237Y-169773866D02*
X156304761Y-169773866D01*
X156304761Y-169773866D02*
X156209523Y-169726247D01*
X156209523Y-169726247D02*
X156161904Y-169678628D01*
X156161904Y-169678628D02*
X156114285Y-169583390D01*
X170954819Y-136060714D02*
X169954819Y-136060714D01*
X169954819Y-136060714D02*
X169954819Y-136298809D01*
X169954819Y-136298809D02*
X170002438Y-136441666D01*
X170002438Y-136441666D02*
X170097676Y-136536904D01*
X170097676Y-136536904D02*
X170192914Y-136584523D01*
X170192914Y-136584523D02*
X170383390Y-136632142D01*
X170383390Y-136632142D02*
X170526247Y-136632142D01*
X170526247Y-136632142D02*
X170716723Y-136584523D01*
X170716723Y-136584523D02*
X170811961Y-136536904D01*
X170811961Y-136536904D02*
X170907200Y-136441666D01*
X170907200Y-136441666D02*
X170954819Y-136298809D01*
X170954819Y-136298809D02*
X170954819Y-136060714D01*
X170954819Y-137584523D02*
X170954819Y-137013095D01*
X170954819Y-137298809D02*
X169954819Y-137298809D01*
X169954819Y-137298809D02*
X170097676Y-137203571D01*
X170097676Y-137203571D02*
X170192914Y-137108333D01*
X170192914Y-137108333D02*
X170240533Y-137013095D01*
X170383390Y-138155952D02*
X170335771Y-138060714D01*
X170335771Y-138060714D02*
X170288152Y-138013095D01*
X170288152Y-138013095D02*
X170192914Y-137965476D01*
X170192914Y-137965476D02*
X170145295Y-137965476D01*
X170145295Y-137965476D02*
X170050057Y-138013095D01*
X170050057Y-138013095D02*
X170002438Y-138060714D01*
X170002438Y-138060714D02*
X169954819Y-138155952D01*
X169954819Y-138155952D02*
X169954819Y-138346428D01*
X169954819Y-138346428D02*
X170002438Y-138441666D01*
X170002438Y-138441666D02*
X170050057Y-138489285D01*
X170050057Y-138489285D02*
X170145295Y-138536904D01*
X170145295Y-138536904D02*
X170192914Y-138536904D01*
X170192914Y-138536904D02*
X170288152Y-138489285D01*
X170288152Y-138489285D02*
X170335771Y-138441666D01*
X170335771Y-138441666D02*
X170383390Y-138346428D01*
X170383390Y-138346428D02*
X170383390Y-138155952D01*
X170383390Y-138155952D02*
X170431009Y-138060714D01*
X170431009Y-138060714D02*
X170478628Y-138013095D01*
X170478628Y-138013095D02*
X170573866Y-137965476D01*
X170573866Y-137965476D02*
X170764342Y-137965476D01*
X170764342Y-137965476D02*
X170859580Y-138013095D01*
X170859580Y-138013095D02*
X170907200Y-138060714D01*
X170907200Y-138060714D02*
X170954819Y-138155952D01*
X170954819Y-138155952D02*
X170954819Y-138346428D01*
X170954819Y-138346428D02*
X170907200Y-138441666D01*
X170907200Y-138441666D02*
X170859580Y-138489285D01*
X170859580Y-138489285D02*
X170764342Y-138536904D01*
X170764342Y-138536904D02*
X170573866Y-138536904D01*
X170573866Y-138536904D02*
X170478628Y-138489285D01*
X170478628Y-138489285D02*
X170431009Y-138441666D01*
X170431009Y-138441666D02*
X170383390Y-138346428D01*
X172737295Y-134303571D02*
X172737295Y-133846428D01*
X172737295Y-134075000D02*
X171937295Y-134075000D01*
X171937295Y-134075000D02*
X172051580Y-133998809D01*
X172051580Y-133998809D02*
X172127771Y-133922619D01*
X172127771Y-133922619D02*
X172165866Y-133846428D01*
X141217857Y-121189580D02*
X141265476Y-121237200D01*
X141265476Y-121237200D02*
X141408333Y-121284819D01*
X141408333Y-121284819D02*
X141503571Y-121284819D01*
X141503571Y-121284819D02*
X141646428Y-121237200D01*
X141646428Y-121237200D02*
X141741666Y-121141961D01*
X141741666Y-121141961D02*
X141789285Y-121046723D01*
X141789285Y-121046723D02*
X141836904Y-120856247D01*
X141836904Y-120856247D02*
X141836904Y-120713390D01*
X141836904Y-120713390D02*
X141789285Y-120522914D01*
X141789285Y-120522914D02*
X141741666Y-120427676D01*
X141741666Y-120427676D02*
X141646428Y-120332438D01*
X141646428Y-120332438D02*
X141503571Y-120284819D01*
X141503571Y-120284819D02*
X141408333Y-120284819D01*
X141408333Y-120284819D02*
X141265476Y-120332438D01*
X141265476Y-120332438D02*
X141217857Y-120380057D01*
X140265476Y-121284819D02*
X140836904Y-121284819D01*
X140551190Y-121284819D02*
X140551190Y-120284819D01*
X140551190Y-120284819D02*
X140646428Y-120427676D01*
X140646428Y-120427676D02*
X140741666Y-120522914D01*
X140741666Y-120522914D02*
X140836904Y-120570533D01*
X139408333Y-120618152D02*
X139408333Y-121284819D01*
X139646428Y-120237200D02*
X139884523Y-120951485D01*
X139884523Y-120951485D02*
X139265476Y-120951485D01*
X122817857Y-161089580D02*
X122865476Y-161137200D01*
X122865476Y-161137200D02*
X123008333Y-161184819D01*
X123008333Y-161184819D02*
X123103571Y-161184819D01*
X123103571Y-161184819D02*
X123246428Y-161137200D01*
X123246428Y-161137200D02*
X123341666Y-161041961D01*
X123341666Y-161041961D02*
X123389285Y-160946723D01*
X123389285Y-160946723D02*
X123436904Y-160756247D01*
X123436904Y-160756247D02*
X123436904Y-160613390D01*
X123436904Y-160613390D02*
X123389285Y-160422914D01*
X123389285Y-160422914D02*
X123341666Y-160327676D01*
X123341666Y-160327676D02*
X123246428Y-160232438D01*
X123246428Y-160232438D02*
X123103571Y-160184819D01*
X123103571Y-160184819D02*
X123008333Y-160184819D01*
X123008333Y-160184819D02*
X122865476Y-160232438D01*
X122865476Y-160232438D02*
X122817857Y-160280057D01*
X122436904Y-160280057D02*
X122389285Y-160232438D01*
X122389285Y-160232438D02*
X122294047Y-160184819D01*
X122294047Y-160184819D02*
X122055952Y-160184819D01*
X122055952Y-160184819D02*
X121960714Y-160232438D01*
X121960714Y-160232438D02*
X121913095Y-160280057D01*
X121913095Y-160280057D02*
X121865476Y-160375295D01*
X121865476Y-160375295D02*
X121865476Y-160470533D01*
X121865476Y-160470533D02*
X121913095Y-160613390D01*
X121913095Y-160613390D02*
X122484523Y-161184819D01*
X122484523Y-161184819D02*
X121865476Y-161184819D01*
X121008333Y-160518152D02*
X121008333Y-161184819D01*
X121246428Y-160137200D02*
X121484523Y-160851485D01*
X121484523Y-160851485D02*
X120865476Y-160851485D01*
X109389580Y-116208333D02*
X109437200Y-116160714D01*
X109437200Y-116160714D02*
X109484819Y-116017857D01*
X109484819Y-116017857D02*
X109484819Y-115922619D01*
X109484819Y-115922619D02*
X109437200Y-115779762D01*
X109437200Y-115779762D02*
X109341961Y-115684524D01*
X109341961Y-115684524D02*
X109246723Y-115636905D01*
X109246723Y-115636905D02*
X109056247Y-115589286D01*
X109056247Y-115589286D02*
X108913390Y-115589286D01*
X108913390Y-115589286D02*
X108722914Y-115636905D01*
X108722914Y-115636905D02*
X108627676Y-115684524D01*
X108627676Y-115684524D02*
X108532438Y-115779762D01*
X108532438Y-115779762D02*
X108484819Y-115922619D01*
X108484819Y-115922619D02*
X108484819Y-116017857D01*
X108484819Y-116017857D02*
X108532438Y-116160714D01*
X108532438Y-116160714D02*
X108580057Y-116208333D01*
X108484819Y-116541667D02*
X108484819Y-117208333D01*
X108484819Y-117208333D02*
X109484819Y-116779762D01*
X120174404Y-116959819D02*
X120174404Y-117769342D01*
X120174404Y-117769342D02*
X120126785Y-117864580D01*
X120126785Y-117864580D02*
X120079166Y-117912200D01*
X120079166Y-117912200D02*
X119983928Y-117959819D01*
X119983928Y-117959819D02*
X119793452Y-117959819D01*
X119793452Y-117959819D02*
X119698214Y-117912200D01*
X119698214Y-117912200D02*
X119650595Y-117864580D01*
X119650595Y-117864580D02*
X119602976Y-117769342D01*
X119602976Y-117769342D02*
X119602976Y-116959819D01*
X119174404Y-117055057D02*
X119126785Y-117007438D01*
X119126785Y-117007438D02*
X119031547Y-116959819D01*
X119031547Y-116959819D02*
X118793452Y-116959819D01*
X118793452Y-116959819D02*
X118698214Y-117007438D01*
X118698214Y-117007438D02*
X118650595Y-117055057D01*
X118650595Y-117055057D02*
X118602976Y-117150295D01*
X118602976Y-117150295D02*
X118602976Y-117245533D01*
X118602976Y-117245533D02*
X118650595Y-117388390D01*
X118650595Y-117388390D02*
X119222023Y-117959819D01*
X119222023Y-117959819D02*
X118602976Y-117959819D01*
X119708094Y-128284819D02*
X119708094Y-127284819D01*
X119708094Y-127284819D02*
X119469999Y-127284819D01*
X119469999Y-127284819D02*
X119327142Y-127332438D01*
X119327142Y-127332438D02*
X119231904Y-127427676D01*
X119231904Y-127427676D02*
X119184285Y-127522914D01*
X119184285Y-127522914D02*
X119136666Y-127713390D01*
X119136666Y-127713390D02*
X119136666Y-127856247D01*
X119136666Y-127856247D02*
X119184285Y-128046723D01*
X119184285Y-128046723D02*
X119231904Y-128141961D01*
X119231904Y-128141961D02*
X119327142Y-128237200D01*
X119327142Y-128237200D02*
X119469999Y-128284819D01*
X119469999Y-128284819D02*
X119708094Y-128284819D01*
X118184285Y-128284819D02*
X118755713Y-128284819D01*
X118469999Y-128284819D02*
X118469999Y-127284819D01*
X118469999Y-127284819D02*
X118565237Y-127427676D01*
X118565237Y-127427676D02*
X118660475Y-127522914D01*
X118660475Y-127522914D02*
X118755713Y-127570533D01*
X127766666Y-121989580D02*
X127814285Y-122037200D01*
X127814285Y-122037200D02*
X127957142Y-122084819D01*
X127957142Y-122084819D02*
X128052380Y-122084819D01*
X128052380Y-122084819D02*
X128195237Y-122037200D01*
X128195237Y-122037200D02*
X128290475Y-121941961D01*
X128290475Y-121941961D02*
X128338094Y-121846723D01*
X128338094Y-121846723D02*
X128385713Y-121656247D01*
X128385713Y-121656247D02*
X128385713Y-121513390D01*
X128385713Y-121513390D02*
X128338094Y-121322914D01*
X128338094Y-121322914D02*
X128290475Y-121227676D01*
X128290475Y-121227676D02*
X128195237Y-121132438D01*
X128195237Y-121132438D02*
X128052380Y-121084819D01*
X128052380Y-121084819D02*
X127957142Y-121084819D01*
X127957142Y-121084819D02*
X127814285Y-121132438D01*
X127814285Y-121132438D02*
X127766666Y-121180057D01*
X126909523Y-121418152D02*
X126909523Y-122084819D01*
X127147618Y-121037200D02*
X127385713Y-121751485D01*
X127385713Y-121751485D02*
X126766666Y-121751485D01*
X131029580Y-125132142D02*
X131077200Y-125084523D01*
X131077200Y-125084523D02*
X131124819Y-124941666D01*
X131124819Y-124941666D02*
X131124819Y-124846428D01*
X131124819Y-124846428D02*
X131077200Y-124703571D01*
X131077200Y-124703571D02*
X130981961Y-124608333D01*
X130981961Y-124608333D02*
X130886723Y-124560714D01*
X130886723Y-124560714D02*
X130696247Y-124513095D01*
X130696247Y-124513095D02*
X130553390Y-124513095D01*
X130553390Y-124513095D02*
X130362914Y-124560714D01*
X130362914Y-124560714D02*
X130267676Y-124608333D01*
X130267676Y-124608333D02*
X130172438Y-124703571D01*
X130172438Y-124703571D02*
X130124819Y-124846428D01*
X130124819Y-124846428D02*
X130124819Y-124941666D01*
X130124819Y-124941666D02*
X130172438Y-125084523D01*
X130172438Y-125084523D02*
X130220057Y-125132142D01*
X131124819Y-126084523D02*
X131124819Y-125513095D01*
X131124819Y-125798809D02*
X130124819Y-125798809D01*
X130124819Y-125798809D02*
X130267676Y-125703571D01*
X130267676Y-125703571D02*
X130362914Y-125608333D01*
X130362914Y-125608333D02*
X130410533Y-125513095D01*
X130220057Y-126465476D02*
X130172438Y-126513095D01*
X130172438Y-126513095D02*
X130124819Y-126608333D01*
X130124819Y-126608333D02*
X130124819Y-126846428D01*
X130124819Y-126846428D02*
X130172438Y-126941666D01*
X130172438Y-126941666D02*
X130220057Y-126989285D01*
X130220057Y-126989285D02*
X130315295Y-127036904D01*
X130315295Y-127036904D02*
X130410533Y-127036904D01*
X130410533Y-127036904D02*
X130553390Y-126989285D01*
X130553390Y-126989285D02*
X131124819Y-126417857D01*
X131124819Y-126417857D02*
X131124819Y-127036904D01*
X135529580Y-125157142D02*
X135577200Y-125109523D01*
X135577200Y-125109523D02*
X135624819Y-124966666D01*
X135624819Y-124966666D02*
X135624819Y-124871428D01*
X135624819Y-124871428D02*
X135577200Y-124728571D01*
X135577200Y-124728571D02*
X135481961Y-124633333D01*
X135481961Y-124633333D02*
X135386723Y-124585714D01*
X135386723Y-124585714D02*
X135196247Y-124538095D01*
X135196247Y-124538095D02*
X135053390Y-124538095D01*
X135053390Y-124538095D02*
X134862914Y-124585714D01*
X134862914Y-124585714D02*
X134767676Y-124633333D01*
X134767676Y-124633333D02*
X134672438Y-124728571D01*
X134672438Y-124728571D02*
X134624819Y-124871428D01*
X134624819Y-124871428D02*
X134624819Y-124966666D01*
X134624819Y-124966666D02*
X134672438Y-125109523D01*
X134672438Y-125109523D02*
X134720057Y-125157142D01*
X135624819Y-126109523D02*
X135624819Y-125538095D01*
X135624819Y-125823809D02*
X134624819Y-125823809D01*
X134624819Y-125823809D02*
X134767676Y-125728571D01*
X134767676Y-125728571D02*
X134862914Y-125633333D01*
X134862914Y-125633333D02*
X134910533Y-125538095D01*
X135624819Y-127061904D02*
X135624819Y-126490476D01*
X135624819Y-126776190D02*
X134624819Y-126776190D01*
X134624819Y-126776190D02*
X134767676Y-126680952D01*
X134767676Y-126680952D02*
X134862914Y-126585714D01*
X134862914Y-126585714D02*
X134910533Y-126490476D01*
X138963094Y-147229819D02*
X138963094Y-146229819D01*
X138963094Y-146229819D02*
X138724999Y-146229819D01*
X138724999Y-146229819D02*
X138582142Y-146277438D01*
X138582142Y-146277438D02*
X138486904Y-146372676D01*
X138486904Y-146372676D02*
X138439285Y-146467914D01*
X138439285Y-146467914D02*
X138391666Y-146658390D01*
X138391666Y-146658390D02*
X138391666Y-146801247D01*
X138391666Y-146801247D02*
X138439285Y-146991723D01*
X138439285Y-146991723D02*
X138486904Y-147086961D01*
X138486904Y-147086961D02*
X138582142Y-147182200D01*
X138582142Y-147182200D02*
X138724999Y-147229819D01*
X138724999Y-147229819D02*
X138963094Y-147229819D01*
X137486904Y-146229819D02*
X137963094Y-146229819D01*
X137963094Y-146229819D02*
X138010713Y-146706009D01*
X138010713Y-146706009D02*
X137963094Y-146658390D01*
X137963094Y-146658390D02*
X137867856Y-146610771D01*
X137867856Y-146610771D02*
X137629761Y-146610771D01*
X137629761Y-146610771D02*
X137534523Y-146658390D01*
X137534523Y-146658390D02*
X137486904Y-146706009D01*
X137486904Y-146706009D02*
X137439285Y-146801247D01*
X137439285Y-146801247D02*
X137439285Y-147039342D01*
X137439285Y-147039342D02*
X137486904Y-147134580D01*
X137486904Y-147134580D02*
X137534523Y-147182200D01*
X137534523Y-147182200D02*
X137629761Y-147229819D01*
X137629761Y-147229819D02*
X137867856Y-147229819D01*
X137867856Y-147229819D02*
X137963094Y-147182200D01*
X137963094Y-147182200D02*
X138010713Y-147134580D01*
X170954819Y-150010714D02*
X169954819Y-150010714D01*
X169954819Y-150010714D02*
X169954819Y-150248809D01*
X169954819Y-150248809D02*
X170002438Y-150391666D01*
X170002438Y-150391666D02*
X170097676Y-150486904D01*
X170097676Y-150486904D02*
X170192914Y-150534523D01*
X170192914Y-150534523D02*
X170383390Y-150582142D01*
X170383390Y-150582142D02*
X170526247Y-150582142D01*
X170526247Y-150582142D02*
X170716723Y-150534523D01*
X170716723Y-150534523D02*
X170811961Y-150486904D01*
X170811961Y-150486904D02*
X170907200Y-150391666D01*
X170907200Y-150391666D02*
X170954819Y-150248809D01*
X170954819Y-150248809D02*
X170954819Y-150010714D01*
X170954819Y-151534523D02*
X170954819Y-150963095D01*
X170954819Y-151248809D02*
X169954819Y-151248809D01*
X169954819Y-151248809D02*
X170097676Y-151153571D01*
X170097676Y-151153571D02*
X170192914Y-151058333D01*
X170192914Y-151058333D02*
X170240533Y-150963095D01*
X169954819Y-151867857D02*
X169954819Y-152534523D01*
X169954819Y-152534523D02*
X170954819Y-152105952D01*
X172737295Y-148253571D02*
X172737295Y-147796428D01*
X172737295Y-148025000D02*
X171937295Y-148025000D01*
X171937295Y-148025000D02*
X172051580Y-147948809D01*
X172051580Y-147948809D02*
X172127771Y-147872619D01*
X172127771Y-147872619D02*
X172165866Y-147796428D01*
X141217857Y-118989580D02*
X141265476Y-119037200D01*
X141265476Y-119037200D02*
X141408333Y-119084819D01*
X141408333Y-119084819D02*
X141503571Y-119084819D01*
X141503571Y-119084819D02*
X141646428Y-119037200D01*
X141646428Y-119037200D02*
X141741666Y-118941961D01*
X141741666Y-118941961D02*
X141789285Y-118846723D01*
X141789285Y-118846723D02*
X141836904Y-118656247D01*
X141836904Y-118656247D02*
X141836904Y-118513390D01*
X141836904Y-118513390D02*
X141789285Y-118322914D01*
X141789285Y-118322914D02*
X141741666Y-118227676D01*
X141741666Y-118227676D02*
X141646428Y-118132438D01*
X141646428Y-118132438D02*
X141503571Y-118084819D01*
X141503571Y-118084819D02*
X141408333Y-118084819D01*
X141408333Y-118084819D02*
X141265476Y-118132438D01*
X141265476Y-118132438D02*
X141217857Y-118180057D01*
X140265476Y-119084819D02*
X140836904Y-119084819D01*
X140551190Y-119084819D02*
X140551190Y-118084819D01*
X140551190Y-118084819D02*
X140646428Y-118227676D01*
X140646428Y-118227676D02*
X140741666Y-118322914D01*
X140741666Y-118322914D02*
X140836904Y-118370533D01*
X139932142Y-118084819D02*
X139313095Y-118084819D01*
X139313095Y-118084819D02*
X139646428Y-118465771D01*
X139646428Y-118465771D02*
X139503571Y-118465771D01*
X139503571Y-118465771D02*
X139408333Y-118513390D01*
X139408333Y-118513390D02*
X139360714Y-118561009D01*
X139360714Y-118561009D02*
X139313095Y-118656247D01*
X139313095Y-118656247D02*
X139313095Y-118894342D01*
X139313095Y-118894342D02*
X139360714Y-118989580D01*
X139360714Y-118989580D02*
X139408333Y-119037200D01*
X139408333Y-119037200D02*
X139503571Y-119084819D01*
X139503571Y-119084819D02*
X139789285Y-119084819D01*
X139789285Y-119084819D02*
X139884523Y-119037200D01*
X139884523Y-119037200D02*
X139932142Y-118989580D01*
X138538094Y-166254819D02*
X138538094Y-165254819D01*
X138538094Y-165254819D02*
X138299999Y-165254819D01*
X138299999Y-165254819D02*
X138157142Y-165302438D01*
X138157142Y-165302438D02*
X138061904Y-165397676D01*
X138061904Y-165397676D02*
X138014285Y-165492914D01*
X138014285Y-165492914D02*
X137966666Y-165683390D01*
X137966666Y-165683390D02*
X137966666Y-165826247D01*
X137966666Y-165826247D02*
X138014285Y-166016723D01*
X138014285Y-166016723D02*
X138061904Y-166111961D01*
X138061904Y-166111961D02*
X138157142Y-166207200D01*
X138157142Y-166207200D02*
X138299999Y-166254819D01*
X138299999Y-166254819D02*
X138538094Y-166254819D01*
X137395237Y-165683390D02*
X137490475Y-165635771D01*
X137490475Y-165635771D02*
X137538094Y-165588152D01*
X137538094Y-165588152D02*
X137585713Y-165492914D01*
X137585713Y-165492914D02*
X137585713Y-165445295D01*
X137585713Y-165445295D02*
X137538094Y-165350057D01*
X137538094Y-165350057D02*
X137490475Y-165302438D01*
X137490475Y-165302438D02*
X137395237Y-165254819D01*
X137395237Y-165254819D02*
X137204761Y-165254819D01*
X137204761Y-165254819D02*
X137109523Y-165302438D01*
X137109523Y-165302438D02*
X137061904Y-165350057D01*
X137061904Y-165350057D02*
X137014285Y-165445295D01*
X137014285Y-165445295D02*
X137014285Y-165492914D01*
X137014285Y-165492914D02*
X137061904Y-165588152D01*
X137061904Y-165588152D02*
X137109523Y-165635771D01*
X137109523Y-165635771D02*
X137204761Y-165683390D01*
X137204761Y-165683390D02*
X137395237Y-165683390D01*
X137395237Y-165683390D02*
X137490475Y-165731009D01*
X137490475Y-165731009D02*
X137538094Y-165778628D01*
X137538094Y-165778628D02*
X137585713Y-165873866D01*
X137585713Y-165873866D02*
X137585713Y-166064342D01*
X137585713Y-166064342D02*
X137538094Y-166159580D01*
X137538094Y-166159580D02*
X137490475Y-166207200D01*
X137490475Y-166207200D02*
X137395237Y-166254819D01*
X137395237Y-166254819D02*
X137204761Y-166254819D01*
X137204761Y-166254819D02*
X137109523Y-166207200D01*
X137109523Y-166207200D02*
X137061904Y-166159580D01*
X137061904Y-166159580D02*
X137014285Y-166064342D01*
X137014285Y-166064342D02*
X137014285Y-165873866D01*
X137014285Y-165873866D02*
X137061904Y-165778628D01*
X137061904Y-165778628D02*
X137109523Y-165731009D01*
X137109523Y-165731009D02*
X137204761Y-165683390D01*
X142017857Y-141789580D02*
X142065476Y-141837200D01*
X142065476Y-141837200D02*
X142208333Y-141884819D01*
X142208333Y-141884819D02*
X142303571Y-141884819D01*
X142303571Y-141884819D02*
X142446428Y-141837200D01*
X142446428Y-141837200D02*
X142541666Y-141741961D01*
X142541666Y-141741961D02*
X142589285Y-141646723D01*
X142589285Y-141646723D02*
X142636904Y-141456247D01*
X142636904Y-141456247D02*
X142636904Y-141313390D01*
X142636904Y-141313390D02*
X142589285Y-141122914D01*
X142589285Y-141122914D02*
X142541666Y-141027676D01*
X142541666Y-141027676D02*
X142446428Y-140932438D01*
X142446428Y-140932438D02*
X142303571Y-140884819D01*
X142303571Y-140884819D02*
X142208333Y-140884819D01*
X142208333Y-140884819D02*
X142065476Y-140932438D01*
X142065476Y-140932438D02*
X142017857Y-140980057D01*
X141636904Y-140980057D02*
X141589285Y-140932438D01*
X141589285Y-140932438D02*
X141494047Y-140884819D01*
X141494047Y-140884819D02*
X141255952Y-140884819D01*
X141255952Y-140884819D02*
X141160714Y-140932438D01*
X141160714Y-140932438D02*
X141113095Y-140980057D01*
X141113095Y-140980057D02*
X141065476Y-141075295D01*
X141065476Y-141075295D02*
X141065476Y-141170533D01*
X141065476Y-141170533D02*
X141113095Y-141313390D01*
X141113095Y-141313390D02*
X141684523Y-141884819D01*
X141684523Y-141884819D02*
X141065476Y-141884819D01*
X140446428Y-140884819D02*
X140351190Y-140884819D01*
X140351190Y-140884819D02*
X140255952Y-140932438D01*
X140255952Y-140932438D02*
X140208333Y-140980057D01*
X140208333Y-140980057D02*
X140160714Y-141075295D01*
X140160714Y-141075295D02*
X140113095Y-141265771D01*
X140113095Y-141265771D02*
X140113095Y-141503866D01*
X140113095Y-141503866D02*
X140160714Y-141694342D01*
X140160714Y-141694342D02*
X140208333Y-141789580D01*
X140208333Y-141789580D02*
X140255952Y-141837200D01*
X140255952Y-141837200D02*
X140351190Y-141884819D01*
X140351190Y-141884819D02*
X140446428Y-141884819D01*
X140446428Y-141884819D02*
X140541666Y-141837200D01*
X140541666Y-141837200D02*
X140589285Y-141789580D01*
X140589285Y-141789580D02*
X140636904Y-141694342D01*
X140636904Y-141694342D02*
X140684523Y-141503866D01*
X140684523Y-141503866D02*
X140684523Y-141265771D01*
X140684523Y-141265771D02*
X140636904Y-141075295D01*
X140636904Y-141075295D02*
X140589285Y-140980057D01*
X140589285Y-140980057D02*
X140541666Y-140932438D01*
X140541666Y-140932438D02*
X140446428Y-140884819D01*
X140939285Y-181454819D02*
X140939285Y-180454819D01*
X140939285Y-180454819D02*
X140701190Y-180454819D01*
X140701190Y-180454819D02*
X140558333Y-180502438D01*
X140558333Y-180502438D02*
X140463095Y-180597676D01*
X140463095Y-180597676D02*
X140415476Y-180692914D01*
X140415476Y-180692914D02*
X140367857Y-180883390D01*
X140367857Y-180883390D02*
X140367857Y-181026247D01*
X140367857Y-181026247D02*
X140415476Y-181216723D01*
X140415476Y-181216723D02*
X140463095Y-181311961D01*
X140463095Y-181311961D02*
X140558333Y-181407200D01*
X140558333Y-181407200D02*
X140701190Y-181454819D01*
X140701190Y-181454819D02*
X140939285Y-181454819D01*
X139415476Y-181454819D02*
X139986904Y-181454819D01*
X139701190Y-181454819D02*
X139701190Y-180454819D01*
X139701190Y-180454819D02*
X139796428Y-180597676D01*
X139796428Y-180597676D02*
X139891666Y-180692914D01*
X139891666Y-180692914D02*
X139986904Y-180740533D01*
X138510714Y-180454819D02*
X138986904Y-180454819D01*
X138986904Y-180454819D02*
X139034523Y-180931009D01*
X139034523Y-180931009D02*
X138986904Y-180883390D01*
X138986904Y-180883390D02*
X138891666Y-180835771D01*
X138891666Y-180835771D02*
X138653571Y-180835771D01*
X138653571Y-180835771D02*
X138558333Y-180883390D01*
X138558333Y-180883390D02*
X138510714Y-180931009D01*
X138510714Y-180931009D02*
X138463095Y-181026247D01*
X138463095Y-181026247D02*
X138463095Y-181264342D01*
X138463095Y-181264342D02*
X138510714Y-181359580D01*
X138510714Y-181359580D02*
X138558333Y-181407200D01*
X138558333Y-181407200D02*
X138653571Y-181454819D01*
X138653571Y-181454819D02*
X138891666Y-181454819D01*
X138891666Y-181454819D02*
X138986904Y-181407200D01*
X138986904Y-181407200D02*
X139034523Y-181359580D01*
X142696428Y-183237295D02*
X143153571Y-183237295D01*
X142924999Y-183237295D02*
X142924999Y-182437295D01*
X142924999Y-182437295D02*
X143001190Y-182551580D01*
X143001190Y-182551580D02*
X143077380Y-182627771D01*
X143077380Y-182627771D02*
X143153571Y-182665866D01*
X136299404Y-106804819D02*
X136299404Y-107614342D01*
X136299404Y-107614342D02*
X136251785Y-107709580D01*
X136251785Y-107709580D02*
X136204166Y-107757200D01*
X136204166Y-107757200D02*
X136108928Y-107804819D01*
X136108928Y-107804819D02*
X135918452Y-107804819D01*
X135918452Y-107804819D02*
X135823214Y-107757200D01*
X135823214Y-107757200D02*
X135775595Y-107709580D01*
X135775595Y-107709580D02*
X135727976Y-107614342D01*
X135727976Y-107614342D02*
X135727976Y-106804819D01*
X135347023Y-106804819D02*
X134727976Y-106804819D01*
X134727976Y-106804819D02*
X135061309Y-107185771D01*
X135061309Y-107185771D02*
X134918452Y-107185771D01*
X134918452Y-107185771D02*
X134823214Y-107233390D01*
X134823214Y-107233390D02*
X134775595Y-107281009D01*
X134775595Y-107281009D02*
X134727976Y-107376247D01*
X134727976Y-107376247D02*
X134727976Y-107614342D01*
X134727976Y-107614342D02*
X134775595Y-107709580D01*
X134775595Y-107709580D02*
X134823214Y-107757200D01*
X134823214Y-107757200D02*
X134918452Y-107804819D01*
X134918452Y-107804819D02*
X135204166Y-107804819D01*
X135204166Y-107804819D02*
X135299404Y-107757200D01*
X135299404Y-107757200D02*
X135347023Y-107709580D01*
X141767857Y-157829580D02*
X141815476Y-157877200D01*
X141815476Y-157877200D02*
X141958333Y-157924819D01*
X141958333Y-157924819D02*
X142053571Y-157924819D01*
X142053571Y-157924819D02*
X142196428Y-157877200D01*
X142196428Y-157877200D02*
X142291666Y-157781961D01*
X142291666Y-157781961D02*
X142339285Y-157686723D01*
X142339285Y-157686723D02*
X142386904Y-157496247D01*
X142386904Y-157496247D02*
X142386904Y-157353390D01*
X142386904Y-157353390D02*
X142339285Y-157162914D01*
X142339285Y-157162914D02*
X142291666Y-157067676D01*
X142291666Y-157067676D02*
X142196428Y-156972438D01*
X142196428Y-156972438D02*
X142053571Y-156924819D01*
X142053571Y-156924819D02*
X141958333Y-156924819D01*
X141958333Y-156924819D02*
X141815476Y-156972438D01*
X141815476Y-156972438D02*
X141767857Y-157020057D01*
X141386904Y-157020057D02*
X141339285Y-156972438D01*
X141339285Y-156972438D02*
X141244047Y-156924819D01*
X141244047Y-156924819D02*
X141005952Y-156924819D01*
X141005952Y-156924819D02*
X140910714Y-156972438D01*
X140910714Y-156972438D02*
X140863095Y-157020057D01*
X140863095Y-157020057D02*
X140815476Y-157115295D01*
X140815476Y-157115295D02*
X140815476Y-157210533D01*
X140815476Y-157210533D02*
X140863095Y-157353390D01*
X140863095Y-157353390D02*
X141434523Y-157924819D01*
X141434523Y-157924819D02*
X140815476Y-157924819D01*
X140482142Y-156924819D02*
X139863095Y-156924819D01*
X139863095Y-156924819D02*
X140196428Y-157305771D01*
X140196428Y-157305771D02*
X140053571Y-157305771D01*
X140053571Y-157305771D02*
X139958333Y-157353390D01*
X139958333Y-157353390D02*
X139910714Y-157401009D01*
X139910714Y-157401009D02*
X139863095Y-157496247D01*
X139863095Y-157496247D02*
X139863095Y-157734342D01*
X139863095Y-157734342D02*
X139910714Y-157829580D01*
X139910714Y-157829580D02*
X139958333Y-157877200D01*
X139958333Y-157877200D02*
X140053571Y-157924819D01*
X140053571Y-157924819D02*
X140339285Y-157924819D01*
X140339285Y-157924819D02*
X140434523Y-157877200D01*
X140434523Y-157877200D02*
X140482142Y-157829580D01*
%TO.C,SW6*%
X115870000Y-156590000D02*
X115870000Y-157606000D01*
X115870000Y-160654000D02*
X115870000Y-161035000D01*
X115870000Y-161035000D02*
X124760000Y-161035000D01*
X120950000Y-156590000D02*
X115870000Y-156590000D01*
X125141000Y-154685000D02*
X123490000Y-154685000D01*
X127300000Y-154685000D02*
X126919000Y-154685000D01*
X127300000Y-155066000D02*
X127300000Y-154685000D01*
X127300000Y-158495000D02*
X127300000Y-158114000D01*
X123414162Y-154666040D02*
G75*
G02*
X120950000Y-156590000I-2464162J616040D01*
G01*
X127300000Y-158495000D02*
G75*
G02*
X124760000Y-161035000I-2540000J0D01*
G01*
%TO.C,SW7*%
X134920000Y-156590000D02*
X134920000Y-157606000D01*
X134920000Y-160654000D02*
X134920000Y-161035000D01*
X134920000Y-161035000D02*
X143810000Y-161035000D01*
X140000000Y-156590000D02*
X134920000Y-156590000D01*
X144191000Y-154685000D02*
X142540000Y-154685000D01*
X146350000Y-154685000D02*
X145969000Y-154685000D01*
X146350000Y-155066000D02*
X146350000Y-154685000D01*
X146350000Y-158495000D02*
X146350000Y-158114000D01*
X142464162Y-154666040D02*
G75*
G02*
X140000000Y-156590000I-2464162J616040D01*
G01*
X146350000Y-158495000D02*
G75*
G02*
X143810000Y-161035000I-2540000J0D01*
G01*
%TO.C,SW4*%
X134920000Y-137540000D02*
X134920000Y-138556000D01*
X134920000Y-141604000D02*
X134920000Y-141985000D01*
X134920000Y-141985000D02*
X143810000Y-141985000D01*
X140000000Y-137540000D02*
X134920000Y-137540000D01*
X144191000Y-135635000D02*
X142540000Y-135635000D01*
X146350000Y-135635000D02*
X145969000Y-135635000D01*
X146350000Y-136016000D02*
X146350000Y-135635000D01*
X146350000Y-139445000D02*
X146350000Y-139064000D01*
X142464162Y-135616040D02*
G75*
G02*
X140000000Y-137540000I-2464162J616040D01*
G01*
X146350000Y-139445000D02*
G75*
G02*
X143810000Y-141985000I-2540000J0D01*
G01*
%TO.C,SW8*%
X153970000Y-156590000D02*
X153970000Y-157606000D01*
X153970000Y-160654000D02*
X153970000Y-161035000D01*
X153970000Y-161035000D02*
X162860000Y-161035000D01*
X159050000Y-156590000D02*
X153970000Y-156590000D01*
X163241000Y-154685000D02*
X161590000Y-154685000D01*
X165400000Y-154685000D02*
X165019000Y-154685000D01*
X165400000Y-155066000D02*
X165400000Y-154685000D01*
X165400000Y-158495000D02*
X165400000Y-158114000D01*
X161514162Y-154666040D02*
G75*
G02*
X159050000Y-156590000I-2464162J616040D01*
G01*
X165400000Y-158495000D02*
G75*
G02*
X162860000Y-161035000I-2540000J0D01*
G01*
%TO.C,SW10*%
X134920000Y-175640000D02*
X134920000Y-176656000D01*
X134920000Y-179704000D02*
X134920000Y-180085000D01*
X134920000Y-180085000D02*
X143810000Y-180085000D01*
X140000000Y-175640000D02*
X134920000Y-175640000D01*
X144191000Y-173735000D02*
X142540000Y-173735000D01*
X146350000Y-173735000D02*
X145969000Y-173735000D01*
X146350000Y-174116000D02*
X146350000Y-173735000D01*
X146350000Y-177545000D02*
X146350000Y-177164000D01*
X142464162Y-173716040D02*
G75*
G02*
X140000000Y-175640000I-2464162J616040D01*
G01*
X146350000Y-177545000D02*
G75*
G02*
X143810000Y-180085000I-2540000J0D01*
G01*
%TO.C,SW5*%
X153970000Y-137540000D02*
X153970000Y-138556000D01*
X153970000Y-141604000D02*
X153970000Y-141985000D01*
X153970000Y-141985000D02*
X162860000Y-141985000D01*
X159050000Y-137540000D02*
X153970000Y-137540000D01*
X163241000Y-135635000D02*
X161590000Y-135635000D01*
X165400000Y-135635000D02*
X165019000Y-135635000D01*
X165400000Y-136016000D02*
X165400000Y-135635000D01*
X165400000Y-139445000D02*
X165400000Y-139064000D01*
X161514162Y-135616040D02*
G75*
G02*
X159050000Y-137540000I-2464162J616040D01*
G01*
X165400000Y-139445000D02*
G75*
G02*
X162860000Y-141985000I-2540000J0D01*
G01*
%TO.C,SW11*%
X153970000Y-175640000D02*
X153970000Y-176656000D01*
X153970000Y-179704000D02*
X153970000Y-180085000D01*
X153970000Y-180085000D02*
X162860000Y-180085000D01*
X159050000Y-175640000D02*
X153970000Y-175640000D01*
X163241000Y-173735000D02*
X161590000Y-173735000D01*
X165400000Y-173735000D02*
X165019000Y-173735000D01*
X165400000Y-174116000D02*
X165400000Y-173735000D01*
X165400000Y-177545000D02*
X165400000Y-177164000D01*
X161514162Y-173716040D02*
G75*
G02*
X159050000Y-175640000I-2464162J616040D01*
G01*
X165400000Y-177545000D02*
G75*
G02*
X162860000Y-180085000I-2540000J0D01*
G01*
%TO.C,SW3*%
X115870000Y-137540000D02*
X115870000Y-138556000D01*
X115870000Y-141604000D02*
X115870000Y-141985000D01*
X115870000Y-141985000D02*
X124760000Y-141985000D01*
X120950000Y-137540000D02*
X115870000Y-137540000D01*
X125141000Y-135635000D02*
X123490000Y-135635000D01*
X127300000Y-135635000D02*
X126919000Y-135635000D01*
X127300000Y-136016000D02*
X127300000Y-135635000D01*
X127300000Y-139445000D02*
X127300000Y-139064000D01*
X123414162Y-135616040D02*
G75*
G02*
X120950000Y-137540000I-2464162J616040D01*
G01*
X127300000Y-139445000D02*
G75*
G02*
X124760000Y-141985000I-2540000J0D01*
G01*
%TO.C,SW9*%
X115870000Y-175640000D02*
X115870000Y-176656000D01*
X115870000Y-179704000D02*
X115870000Y-180085000D01*
X115870000Y-180085000D02*
X124760000Y-180085000D01*
X120950000Y-175640000D02*
X115870000Y-175640000D01*
X125141000Y-173735000D02*
X123490000Y-173735000D01*
X127300000Y-173735000D02*
X126919000Y-173735000D01*
X127300000Y-174116000D02*
X127300000Y-173735000D01*
X127300000Y-177545000D02*
X127300000Y-177164000D01*
X123414162Y-173716040D02*
G75*
G02*
X120950000Y-175640000I-2464162J616040D01*
G01*
X127300000Y-177545000D02*
G75*
G02*
X124760000Y-180085000I-2540000J0D01*
G01*
%TO.C,C26*%
D11*
X141034420Y-177690000D02*
X141315580Y-177690000D01*
X141034420Y-178710000D02*
X141315580Y-178710000D01*
%TO.C,C25*%
X121834420Y-177190000D02*
X122115580Y-177190000D01*
X121834420Y-178210000D02*
X122115580Y-178210000D01*
%TO.C,D6*%
X154740000Y-147825000D02*
X158750000Y-147825000D01*
X154740000Y-149825000D02*
X154740000Y-147825000D01*
X154740000Y-149825000D02*
X158750000Y-149825000D01*
%TO.C,D2*%
X140410000Y-128800000D02*
X136400000Y-128800000D01*
X140410000Y-128800000D02*
X140410000Y-130800000D01*
X140410000Y-130800000D02*
X136400000Y-130800000D01*
%TO.C,C1*%
X139190000Y-108859420D02*
X139190000Y-109140580D01*
X140210000Y-108859420D02*
X140210000Y-109140580D01*
%TO.C,C15*%
X111084420Y-118890000D02*
X111365580Y-118890000D01*
X111084420Y-119910000D02*
X111365580Y-119910000D01*
%TO.C,C3*%
X127434420Y-121890000D02*
X127715580Y-121890000D01*
X127434420Y-122910000D02*
X127715580Y-122910000D01*
%TO.C,C19*%
X122034420Y-139390000D02*
X122315580Y-139390000D01*
X122034420Y-140410000D02*
X122315580Y-140410000D01*
%TO.C,D12*%
X122450000Y-110025000D02*
X122450000Y-105025000D01*
X123050000Y-104425000D02*
X122450000Y-105025000D01*
X123050000Y-104425000D02*
X126450000Y-104425000D01*
X126450000Y-110025000D02*
X122450000Y-110025000D01*
X126450000Y-110025000D02*
X126450000Y-104425000D01*
%TO.C,D16*%
X150425000Y-185150000D02*
X150425000Y-181750000D01*
X150425000Y-185150000D02*
X151025000Y-185750000D01*
X156025000Y-181750000D02*
X150425000Y-181750000D01*
X156025000Y-181750000D02*
X156025000Y-185750000D01*
X156025000Y-185750000D02*
X151025000Y-185750000D01*
%TO.C,D10*%
X161725000Y-106150000D02*
X161725000Y-102750000D01*
X161725000Y-106150000D02*
X162325000Y-106750000D01*
X167325000Y-102750000D02*
X161725000Y-102750000D01*
X167325000Y-102750000D02*
X167325000Y-106750000D01*
X167325000Y-106750000D02*
X162325000Y-106750000D01*
%TO.C,D11*%
X147325000Y-106150000D02*
X147325000Y-102750000D01*
X147325000Y-106150000D02*
X147925000Y-106750000D01*
X152925000Y-102750000D02*
X147325000Y-102750000D01*
X152925000Y-102750000D02*
X152925000Y-106750000D01*
X152925000Y-106750000D02*
X147925000Y-106750000D01*
%TO.C,D7*%
X121260000Y-166700000D02*
X117250000Y-166700000D01*
X121260000Y-166700000D02*
X121260000Y-168700000D01*
X121260000Y-168700000D02*
X117250000Y-168700000D01*
%TO.C,D4*%
X121360000Y-147700000D02*
X117350000Y-147700000D01*
X121360000Y-147700000D02*
X121360000Y-149700000D01*
X121360000Y-149700000D02*
X117350000Y-149700000D01*
%TO.C,C10*%
X140384420Y-121890000D02*
X140665580Y-121890000D01*
X140384420Y-122910000D02*
X140665580Y-122910000D01*
%TO.C,C8*%
X134490000Y-113165580D02*
X134490000Y-112884420D01*
X135510000Y-113165580D02*
X135510000Y-112884420D01*
%TO.C,C5*%
X127484420Y-117690000D02*
X127765580Y-117690000D01*
X127484420Y-118710000D02*
X127765580Y-118710000D01*
%TO.C,U1*%
X130977500Y-116385000D02*
X130977500Y-117035000D01*
X130977500Y-122955000D02*
X130977500Y-123605000D01*
X130977500Y-123605000D02*
X131627500Y-123605000D01*
X131627500Y-116385000D02*
X130977500Y-116385000D01*
X137547500Y-123605000D02*
X138197500Y-123605000D01*
X138197500Y-116385000D02*
X137547500Y-116385000D01*
X138197500Y-117035000D02*
X138197500Y-116385000D01*
X138197500Y-123605000D02*
X138197500Y-122955000D01*
X131987500Y-115855000D02*
X131747500Y-115525000D01*
X132227500Y-115525000D01*
X131987500Y-115855000D01*
G36*
X131987500Y-115855000D02*
G01*
X131747500Y-115525000D01*
X132227500Y-115525000D01*
X131987500Y-115855000D01*
G37*
%TO.C,Y1*%
X143390000Y-117440000D02*
X146810000Y-117440000D01*
X146810000Y-117440000D02*
X146810000Y-121560000D01*
%TO.C,D3*%
X154690000Y-128800000D02*
X158700000Y-128800000D01*
X154690000Y-130800000D02*
X154690000Y-128800000D01*
X154690000Y-130800000D02*
X158700000Y-130800000D01*
%TO.C,C9*%
X136890000Y-113165580D02*
X136890000Y-112884420D01*
X137910000Y-113165580D02*
X137910000Y-112884420D01*
%TO.C,C27*%
X160234420Y-177890000D02*
X160515580Y-177890000D01*
X160234420Y-178910000D02*
X160515580Y-178910000D01*
%TO.C,R3*%
X139477500Y-125462258D02*
X139477500Y-124987742D01*
X140522500Y-125462258D02*
X140522500Y-124987742D01*
%TO.C,D14*%
X123925000Y-185150000D02*
X123925000Y-181750000D01*
X123925000Y-185150000D02*
X124525000Y-185750000D01*
X129525000Y-181750000D02*
X123925000Y-181750000D01*
X129525000Y-181750000D02*
X129525000Y-185750000D01*
X129525000Y-185750000D02*
X124525000Y-185750000D01*
%TO.C,C6*%
X132090000Y-112884420D02*
X132090000Y-113165580D01*
X133110000Y-112884420D02*
X133110000Y-113165580D01*
%TO.C,C2*%
X131290000Y-109434420D02*
X131290000Y-109715580D01*
X132310000Y-109434420D02*
X132310000Y-109715580D01*
%TO.C,C22*%
X159834420Y-158490000D02*
X160115580Y-158490000D01*
X159834420Y-159510000D02*
X160115580Y-159510000D01*
%TO.C,C21*%
X160059420Y-139590000D02*
X160340580Y-139590000D01*
X160059420Y-140610000D02*
X160340580Y-140610000D01*
%TO.C,D13*%
X103350000Y-147675000D02*
X103350000Y-142675000D01*
X103950000Y-142075000D02*
X103350000Y-142675000D01*
X103950000Y-142075000D02*
X107350000Y-142075000D01*
X107350000Y-147675000D02*
X103350000Y-147675000D01*
X107350000Y-147675000D02*
X107350000Y-142075000D01*
%TO.C,D9*%
X154540000Y-166700000D02*
X158550000Y-166700000D01*
X154540000Y-168700000D02*
X154540000Y-166700000D01*
X154540000Y-168700000D02*
X158550000Y-168700000D01*
%TO.C,D18*%
X171250000Y-134475000D02*
X171250000Y-140075000D01*
X171250000Y-134475000D02*
X175250000Y-134475000D01*
X174650000Y-140075000D02*
X171250000Y-140075000D01*
X174650000Y-140075000D02*
X175250000Y-139475000D01*
X175250000Y-134475000D02*
X175250000Y-139475000D01*
%TO.C,C14*%
X140434420Y-118890000D02*
X140715580Y-118890000D01*
X140434420Y-119910000D02*
X140715580Y-119910000D01*
%TO.C,C24*%
X122034420Y-158790000D02*
X122315580Y-158790000D01*
X122034420Y-159810000D02*
X122315580Y-159810000D01*
%TO.C,C7*%
X107090000Y-116515580D02*
X107090000Y-116234420D01*
X108110000Y-116515580D02*
X108110000Y-116234420D01*
%TO.C,U2*%
X116652500Y-118345000D02*
X116652500Y-118615000D01*
X116652500Y-123595000D02*
X116652500Y-123865000D01*
X116652500Y-123865000D02*
X122172500Y-123865000D01*
X122172500Y-118345000D02*
X116652500Y-118345000D01*
X122172500Y-118615000D02*
X122172500Y-118345000D01*
X122172500Y-123865000D02*
X122172500Y-123595000D01*
X123002500Y-118605000D02*
X122662500Y-118135000D01*
X123342500Y-118135000D01*
X123002500Y-118605000D01*
G36*
X123002500Y-118605000D02*
G01*
X122662500Y-118135000D01*
X123342500Y-118135000D01*
X123002500Y-118605000D01*
G37*
%TO.C,D1*%
X121330000Y-128830000D02*
X117320000Y-128830000D01*
X121330000Y-128830000D02*
X121330000Y-130830000D01*
X121330000Y-130830000D02*
X117320000Y-130830000D01*
%TO.C,C4*%
X127459420Y-119690000D02*
X127740580Y-119690000D01*
X127459420Y-120710000D02*
X127740580Y-120710000D01*
%TO.C,C12*%
X131590000Y-125634420D02*
X131590000Y-125915580D01*
X132610000Y-125634420D02*
X132610000Y-125915580D01*
%TO.C,C11*%
X136090000Y-125659420D02*
X136090000Y-125940580D01*
X137110000Y-125659420D02*
X137110000Y-125940580D01*
%TO.C,D5*%
X140585000Y-147775000D02*
X136575000Y-147775000D01*
X140585000Y-147775000D02*
X140585000Y-149775000D01*
X140585000Y-149775000D02*
X136575000Y-149775000D01*
%TO.C,D17*%
X171250000Y-148425000D02*
X171250000Y-154025000D01*
X171250000Y-148425000D02*
X175250000Y-148425000D01*
X174650000Y-154025000D02*
X171250000Y-154025000D01*
X174650000Y-154025000D02*
X175250000Y-153425000D01*
X175250000Y-148425000D02*
X175250000Y-153425000D01*
%TO.C,C13*%
X140434420Y-116690000D02*
X140715580Y-116690000D01*
X140434420Y-117710000D02*
X140715580Y-117710000D01*
%TO.C,D8*%
X140160000Y-166800000D02*
X136150000Y-166800000D01*
X140160000Y-166800000D02*
X140160000Y-168800000D01*
X140160000Y-168800000D02*
X136150000Y-168800000D01*
%TO.C,C20*%
X141234420Y-139490000D02*
X141515580Y-139490000D01*
X141234420Y-140510000D02*
X141515580Y-140510000D01*
%TO.C,D15*%
X136925000Y-185150000D02*
X136925000Y-181750000D01*
X136925000Y-185150000D02*
X137525000Y-185750000D01*
X142525000Y-181750000D02*
X136925000Y-181750000D01*
X142525000Y-181750000D02*
X142525000Y-185750000D01*
X142525000Y-185750000D02*
X137525000Y-185750000D01*
%TO.C,U3*%
X134627500Y-108190000D02*
X134627500Y-108240000D01*
X134627500Y-109360000D02*
X134627500Y-110140000D01*
X134627500Y-111260000D02*
X134627500Y-111310000D01*
X134627500Y-111310000D02*
X136447500Y-111310000D01*
X136447500Y-108190000D02*
X134627500Y-108190000D01*
X136447500Y-108240000D02*
X136447500Y-108190000D01*
X136447500Y-111310000D02*
X136447500Y-111260000D01*
X136987500Y-108240000D02*
X136747500Y-107910000D01*
X137227500Y-107910000D01*
X136987500Y-108240000D01*
G36*
X136987500Y-108240000D02*
G01*
X136747500Y-107910000D01*
X137227500Y-107910000D01*
X136987500Y-108240000D01*
G37*
%TO.C,C23*%
X141265580Y-158390000D02*
X140984420Y-158390000D01*
X141265580Y-159410000D02*
X140984420Y-159410000D01*
%TD*%
M02*
