M48
; DRILL file KiCad 10.0.1 date 2026-05-07T14:46:03
; FORMAT={-:-/ absolute / metric / decimal}
; #@! TF.CreationDate,2026-05-07T14:46:03-07:00
; #@! TF.GenerationSoftware,Kicad,Pcbnew,10.0.1
; #@! TF.FileFunction,NonPlated,1,2,NPTH
FMAT,2
METRIC
; #@! TA.AperFunction,NonPlated,NPTH,ComponentDrill
T1C1.702
; #@! TA.AperFunction,NonPlated,NPTH,ComponentDrill
T2C2.200
; #@! TA.AperFunction,NonPlated,NPTH,ComponentDrill
T3C3.000
; #@! TA.AperFunction,NonPlated,NPTH,ComponentDrill
T4C3.988
%
G90
G05
T1
X115.87Y-135.0
X115.87Y-154.05
X115.87Y-173.1
X126.03Y-135.0
X126.03Y-154.05
X126.03Y-173.1
X134.92Y-135.0
X134.92Y-154.05
X134.92Y-173.1
X145.08Y-135.0
X145.08Y-154.05
X145.08Y-173.1
X153.97Y-135.0
X153.97Y-154.05
X153.97Y-173.1
X164.13Y-135.0
X164.13Y-154.05
X164.13Y-173.1
T2
X105.0Y-105.0
X105.0Y-185.0
X175.0Y-105.0
X175.0Y-185.0
T3
X118.41Y-140.08
X118.41Y-159.13
X118.41Y-178.18
X124.76Y-137.54
X124.76Y-156.59
X124.76Y-175.64
X137.46Y-140.08
X137.46Y-159.13
X137.46Y-178.18
X143.81Y-137.54
X143.81Y-156.59
X143.81Y-175.64
X156.51Y-140.08
X156.51Y-159.13
X156.51Y-178.18
X162.86Y-137.54
X162.86Y-156.59
X162.86Y-175.64
T4
X120.95Y-135.0
X120.95Y-154.05
X120.95Y-173.1
X140.0Y-135.0
X140.0Y-154.05
X140.0Y-173.1
X159.05Y-135.0
X159.05Y-154.05
X159.05Y-173.1
M30
