M48
; DRILL file KiCad 10.0.1 date 2026-05-07T14:46:03
; FORMAT={-:-/ absolute / metric / decimal}
; #@! TF.CreationDate,2026-05-07T14:46:03-07:00
; #@! TF.GenerationSoftware,Kicad,Pcbnew,10.0.1
; #@! TF.FileFunction,Plated,1,2,PTH
FMAT,2
METRIC
; #@! TA.AperFunction,Plated,PTH,ViaDrill
T1C0.300
; #@! TA.AperFunction,Plated,PTH,ComponentDrill
T2C0.400
; #@! TA.AperFunction,Plated,PTH,ComponentDrill
T3C0.600
; #@! TA.AperFunction,Plated,PTH,ComponentDrill
T4C1.000
; #@! TA.AperFunction,Plated,PTH,ComponentDrill
T5C1.100
; #@! TA.AperFunction,Plated,PTH,ComponentDrill
T6C1.499
; #@! TA.AperFunction,Plated,PTH,ComponentDrill
T7C1.500
%
G90
G05
T1
X105.2Y-132.0
X109.0Y-112.0
X109.0Y-117.0
X109.5Y-113.0
X110.5Y-146.5
X111.685Y-121.235
X113.4Y-121.8
X113.5Y-120.5
X113.8Y-123.6
X115.21Y-145.0
X119.0Y-151.5
X119.28Y-132.542
X119.445Y-170.445
X120.35Y-160.625
X121.9Y-184.925
X122.289Y-115.511
X122.5Y-116.5
X123.5Y-116.5
X124.1Y-117.1
X125.325Y-112.5
X126.0Y-101.6
X126.95Y-123.85
X127.0Y-109.0
X127.301Y-154.64
X127.334Y-119.184
X127.5Y-135.0
X127.5Y-143.5
X127.5Y-173.5
X128.6Y-106.2
X129.0Y-125.2
X129.353Y-117.943
X129.368Y-118.806
X129.5Y-122.0
X129.5Y-148.077
X129.812Y-117.056
X129.842Y-119.6
X130.145Y-115.648
X130.229Y-122.345
X130.418Y-116.4
X130.563Y-120.445
X130.6Y-109.0
X130.6Y-129.077
X130.8Y-148.2
X130.85Y-127.2
X131.2Y-146.8
X131.4Y-161.4
X131.4Y-177.8
X131.4Y-188.4
X131.795Y-115.205
X132.19Y-184.61
X132.6Y-114.875
X133.169Y-124.75
X133.4Y-114.875
X133.8Y-126.4
X134.034Y-114.475
X134.046Y-124.75
X134.6Y-126.2
X134.661Y-124.32
X134.742Y-114.742
X135.4Y-126.2
X135.4Y-183.2
X136.2Y-114.825
X137.184Y-115.32
X137.75Y-126.1
X138.229Y-151.728
X138.454Y-132.454
X138.72Y-170.22
X138.79Y-123.29
X138.863Y-120.863
X138.903Y-116.6
X139.0Y-115.5
X139.08Y-118.209
X139.225Y-121.52
X140.4Y-118.4
X140.525Y-120.75
X141.0Y-123.5
X141.125Y-107.85
X141.936Y-121.264
X142.8Y-110.8
X143.09Y-121.15
X143.09Y-122.0
X144.8Y-115.6
X145.74Y-184.66
X146.5Y-135.0
X146.5Y-154.5
X146.5Y-173.0
X148.95Y-185.65
X149.0Y-183.0
X149.2Y-102.0
X150.6Y-113.8
X151.547Y-120.147
X155.421Y-143.579
X156.2Y-103.6
X156.377Y-163.623
X157.47Y-151.47
X157.479Y-132.479
X157.495Y-170.495
X158.35Y-184.0
X160.0Y-143.0
X160.0Y-163.0
X160.4Y-104.4
X163.4Y-187.6
X165.5Y-154.5
X165.527Y-172.998
X166.0Y-135.5
X170.3Y-119.3
X172.0Y-159.6
X172.0Y-177.2
X172.6Y-126.4
X172.6Y-141.2
X172.6Y-155.6
X174.2Y-146.8
T2
X133.85Y-104.51
X133.85Y-105.86
X134.7Y-104.51
X134.7Y-105.86
X135.55Y-104.51
X135.55Y-105.86
X136.4Y-104.51
X136.4Y-105.86
X137.25Y-104.51
X137.25Y-105.86
X138.1Y-104.51
X138.1Y-105.86
X138.95Y-104.51
X138.95Y-105.86
X139.8Y-104.51
X139.8Y-105.86
T4
X104.775Y-166.85
X104.775Y-169.39
X104.775Y-171.93
X104.775Y-174.47
X153.5Y-112.0
X153.5Y-114.5
X153.5Y-117.0
X168.0Y-112.0
X168.0Y-117.0
T5
X112.475Y-101.925
X112.475Y-106.425
X112.525Y-111.125
X112.525Y-115.625
X118.975Y-101.925
X118.975Y-106.425
X119.025Y-111.125
X119.025Y-115.625
T6
X117.14Y-132.46
X117.14Y-151.51
X117.14Y-170.56
X123.49Y-129.92
X123.49Y-148.97
X123.49Y-168.02
X136.19Y-132.46
X136.19Y-151.51
X136.19Y-170.56
X142.54Y-129.92
X142.54Y-148.97
X142.54Y-168.02
X155.24Y-132.46
X155.24Y-151.51
X155.24Y-170.56
X161.59Y-129.92
X161.59Y-148.97
X161.59Y-168.02
T3
G00X132.5Y-101.9
M15
G01X132.5Y-101.1
M16
G05
G00X132.5Y-105.63
M15
G01X132.5Y-104.13
M16
G05
G00X141.15Y-101.9
M15
G01X141.15Y-101.1
M16
G05
G00X141.15Y-105.63
M15
G01X141.15Y-104.13
M16
G05
T7
G00X160.35Y-108.9
M15
G01X161.65Y-108.9
M16
G05
G00X160.35Y-120.1
M15
G01X161.65Y-120.1
M16
G05
M30
