%TF.GenerationSoftware,KiCad,Pcbnew,10.0.1*%
%TF.CreationDate,2026-05-07T14:41:56-07:00*%
%TF.ProjectId,macro-keypad,6d616372-6f2d-46b6-9579-7061642e6b69,rev?*%
%TF.SameCoordinates,Original*%
%TF.FileFunction,Paste,Bot*%
%TF.FilePolarity,Positive*%
%FSLAX46Y46*%
G04 Gerber Fmt 4.6, Leading zero omitted, Abs format (unit mm)*
G04 Created by KiCad (PCBNEW 10.0.1) date 2026-05-07 14:41:56*
%MOMM*%
%LPD*%
G01*
G04 APERTURE LIST*
G04 Aperture macros list*
%AMRoundRect*
0 Rectangle with rounded corners*
0 $1 Rounding radius*
0 $2 $3 $4 $5 $6 $7 $8 $9 X,Y pos of 4 corners*
0 Add a 4 corners polygon primitive as box body*
4,1,4,$2,$3,$4,$5,$6,$7,$8,$9,$2,$3,0*
0 Add four circle primitives for the rounded corners*
1,1,$1+$1,$2,$3*
1,1,$1+$1,$4,$5*
1,1,$1+$1,$6,$7*
1,1,$1+$1,$8,$9*
0 Add four rect primitives between the rounded corners*
20,1,$1+$1,$2,$3,$4,$5,0*
20,1,$1+$1,$4,$5,$6,$7,0*
20,1,$1+$1,$6,$7,$8,$9,0*
20,1,$1+$1,$8,$9,$2,$3,0*%
G04 Aperture macros list end*
%ADD10R,2.550000X2.500000*%
%ADD11RoundRect,0.225000X-0.225000X-0.250000X0.225000X-0.250000X0.225000X0.250000X-0.225000X0.250000X0*%
%ADD12RoundRect,0.225000X-0.225000X-0.375000X0.225000X-0.375000X0.225000X0.375000X-0.225000X0.375000X0*%
%ADD13RoundRect,0.225000X0.225000X0.375000X-0.225000X0.375000X-0.225000X-0.375000X0.225000X-0.375000X0*%
%ADD14RoundRect,0.225000X-0.250000X0.225000X-0.250000X-0.225000X0.250000X-0.225000X0.250000X0.225000X0*%
%ADD15R,0.850000X1.600000*%
%ADD16R,1.600000X0.850000*%
%ADD17RoundRect,0.225000X0.250000X-0.225000X0.250000X0.225000X-0.250000X0.225000X-0.250000X-0.225000X0*%
%ADD18RoundRect,0.249999X-0.395001X0.395001X-0.395001X-0.395001X0.395001X-0.395001X0.395001X0.395001X0*%
%ADD19RoundRect,0.050000X-0.050000X0.387500X-0.050000X-0.387500X0.050000X-0.387500X0.050000X0.387500X0*%
%ADD20RoundRect,0.050000X-0.387500X0.050000X-0.387500X-0.050000X0.387500X-0.050000X0.387500X0.050000X0*%
%ADD21RoundRect,0.250000X-0.350000X0.450000X-0.350000X-0.450000X0.350000X-0.450000X0.350000X0.450000X0*%
%ADD22RoundRect,0.200000X0.275000X-0.200000X0.275000X0.200000X-0.275000X0.200000X-0.275000X-0.200000X0*%
%ADD23RoundRect,0.162500X0.650000X0.162500X-0.650000X0.162500X-0.650000X-0.162500X0.650000X-0.162500X0*%
%ADD24RoundRect,0.150000X0.512500X0.150000X-0.512500X0.150000X-0.512500X-0.150000X0.512500X-0.150000X0*%
%ADD25RoundRect,0.225000X0.225000X0.250000X-0.225000X0.250000X-0.225000X-0.250000X0.225000X-0.250000X0*%
G04 APERTURE END LIST*
D10*
%TO.C,SW6*%
X114660000Y-159130000D03*
X128510000Y-156590000D03*
%TD*%
%TO.C,SW7*%
X133710000Y-159130000D03*
X147560000Y-156590000D03*
%TD*%
%TO.C,SW4*%
X133710000Y-140080000D03*
X147560000Y-137540000D03*
%TD*%
%TO.C,SW8*%
X152760000Y-159130000D03*
X166610000Y-156590000D03*
%TD*%
%TO.C,SW10*%
X133710000Y-178180000D03*
X147560000Y-175640000D03*
%TD*%
%TO.C,SW5*%
X152760000Y-140080000D03*
X166610000Y-137540000D03*
%TD*%
%TO.C,SW11*%
X152760000Y-178180000D03*
X166610000Y-175640000D03*
%TD*%
%TO.C,SW3*%
X114660000Y-140080000D03*
X128510000Y-137540000D03*
%TD*%
%TO.C,SW9*%
X114660000Y-178180000D03*
X128510000Y-175640000D03*
%TD*%
D11*
%TO.C,C26*%
X140400000Y-178200000D03*
X141950000Y-178200000D03*
%TD*%
%TO.C,C25*%
X121200000Y-177700000D03*
X122750000Y-177700000D03*
%TD*%
D12*
%TO.C,D6*%
X155450000Y-148825000D03*
X158750000Y-148825000D03*
%TD*%
D13*
%TO.C,D2*%
X139700000Y-129800000D03*
X136400000Y-129800000D03*
%TD*%
D14*
%TO.C,C1*%
X139700000Y-108225000D03*
X139700000Y-109775000D03*
%TD*%
D11*
%TO.C,C15*%
X110450000Y-119400000D03*
X112000000Y-119400000D03*
%TD*%
%TO.C,C3*%
X126800000Y-122400000D03*
X128350000Y-122400000D03*
%TD*%
%TO.C,C19*%
X121400000Y-139900000D03*
X122950000Y-139900000D03*
%TD*%
D15*
%TO.C,D12*%
X125325000Y-108975000D03*
X123575000Y-108975000D03*
X123575000Y-105475000D03*
X125325000Y-105475000D03*
%TD*%
D16*
%TO.C,D16*%
X154975000Y-182875000D03*
X154975000Y-184625000D03*
X151475000Y-184625000D03*
X151475000Y-182875000D03*
%TD*%
%TO.C,D10*%
X166275000Y-103875000D03*
X166275000Y-105625000D03*
X162775000Y-105625000D03*
X162775000Y-103875000D03*
%TD*%
%TO.C,D11*%
X151875000Y-103875000D03*
X151875000Y-105625000D03*
X148375000Y-105625000D03*
X148375000Y-103875000D03*
%TD*%
D13*
%TO.C,D7*%
X120550000Y-167700000D03*
X117250000Y-167700000D03*
%TD*%
%TO.C,D4*%
X120650000Y-148700000D03*
X117350000Y-148700000D03*
%TD*%
D11*
%TO.C,C10*%
X139750000Y-122400000D03*
X141300000Y-122400000D03*
%TD*%
D17*
%TO.C,C8*%
X135000000Y-113800000D03*
X135000000Y-112250000D03*
%TD*%
D11*
%TO.C,C5*%
X126850000Y-118200000D03*
X128400000Y-118200000D03*
%TD*%
D18*
%TO.C,U1*%
X135387500Y-119195000D03*
X133787500Y-119195000D03*
X135387500Y-120795000D03*
X133787500Y-120795000D03*
D19*
X131987500Y-116557500D03*
X132387500Y-116557500D03*
X132787500Y-116557500D03*
X133187500Y-116557500D03*
X133587500Y-116557500D03*
X133987500Y-116557500D03*
X134387500Y-116557500D03*
X134787500Y-116557500D03*
X135187500Y-116557500D03*
X135587500Y-116557500D03*
X135987500Y-116557500D03*
X136387500Y-116557500D03*
X136787500Y-116557500D03*
X137187500Y-116557500D03*
D20*
X138025000Y-117395000D03*
X138025000Y-117795000D03*
X138025000Y-118195000D03*
X138025000Y-118595000D03*
X138025000Y-118995000D03*
X138025000Y-119395000D03*
X138025000Y-119795000D03*
X138025000Y-120195000D03*
X138025000Y-120595000D03*
X138025000Y-120995000D03*
X138025000Y-121395000D03*
X138025000Y-121795000D03*
X138025000Y-122195000D03*
X138025000Y-122595000D03*
D19*
X137187500Y-123432500D03*
X136787500Y-123432500D03*
X136387500Y-123432500D03*
X135987500Y-123432500D03*
X135587500Y-123432500D03*
X135187500Y-123432500D03*
X134787500Y-123432500D03*
X134387500Y-123432500D03*
X133987500Y-123432500D03*
X133587500Y-123432500D03*
X133187500Y-123432500D03*
X132787500Y-123432500D03*
X132387500Y-123432500D03*
X131987500Y-123432500D03*
D20*
X131150000Y-122595000D03*
X131150000Y-122195000D03*
X131150000Y-121795000D03*
X131150000Y-121395000D03*
X131150000Y-120995000D03*
X131150000Y-120595000D03*
X131150000Y-120195000D03*
X131150000Y-119795000D03*
X131150000Y-119395000D03*
X131150000Y-118995000D03*
X131150000Y-118595000D03*
X131150000Y-118195000D03*
X131150000Y-117795000D03*
X131150000Y-117395000D03*
%TD*%
D21*
%TO.C,Y1*%
X145950000Y-118400000D03*
X145950000Y-120600000D03*
X144250000Y-120600000D03*
X144250000Y-118400000D03*
%TD*%
D12*
%TO.C,D3*%
X155400000Y-129800000D03*
X158700000Y-129800000D03*
%TD*%
D17*
%TO.C,C9*%
X137400000Y-113800000D03*
X137400000Y-112250000D03*
%TD*%
D11*
%TO.C,C27*%
X159600000Y-178400000D03*
X161150000Y-178400000D03*
%TD*%
D22*
%TO.C,R3*%
X140000000Y-126050000D03*
X140000000Y-124400000D03*
%TD*%
D16*
%TO.C,D14*%
X128475000Y-182875000D03*
X128475000Y-184625000D03*
X124975000Y-184625000D03*
X124975000Y-182875000D03*
%TD*%
D14*
%TO.C,C6*%
X132600000Y-112250000D03*
X132600000Y-113800000D03*
%TD*%
%TO.C,C2*%
X131800000Y-108800000D03*
X131800000Y-110350000D03*
%TD*%
D11*
%TO.C,C22*%
X159200000Y-159000000D03*
X160750000Y-159000000D03*
%TD*%
%TO.C,C21*%
X159425000Y-140100000D03*
X160975000Y-140100000D03*
%TD*%
D15*
%TO.C,D13*%
X106225000Y-146625000D03*
X104475000Y-146625000D03*
X104475000Y-143125000D03*
X106225000Y-143125000D03*
%TD*%
D12*
%TO.C,D9*%
X155250000Y-167700000D03*
X158550000Y-167700000D03*
%TD*%
D15*
%TO.C,D18*%
X172375000Y-135525000D03*
X174125000Y-135525000D03*
X174125000Y-139025000D03*
X172375000Y-139025000D03*
%TD*%
D11*
%TO.C,C14*%
X139800000Y-119400000D03*
X141350000Y-119400000D03*
%TD*%
%TO.C,C24*%
X121400000Y-159300000D03*
X122950000Y-159300000D03*
%TD*%
D17*
%TO.C,C7*%
X107600000Y-117150000D03*
X107600000Y-115600000D03*
%TD*%
D23*
%TO.C,U2*%
X123000000Y-119200000D03*
X123000000Y-120470000D03*
X123000000Y-121740000D03*
X123000000Y-123010000D03*
X115825000Y-123010000D03*
X115825000Y-121740000D03*
X115825000Y-120470000D03*
X115825000Y-119200000D03*
%TD*%
D13*
%TO.C,D1*%
X120620000Y-129830000D03*
X117320000Y-129830000D03*
%TD*%
D11*
%TO.C,C4*%
X126825000Y-120200000D03*
X128375000Y-120200000D03*
%TD*%
D14*
%TO.C,C12*%
X132100000Y-125000000D03*
X132100000Y-126550000D03*
%TD*%
%TO.C,C11*%
X136600000Y-125025000D03*
X136600000Y-126575000D03*
%TD*%
D13*
%TO.C,D5*%
X139875000Y-148775000D03*
X136575000Y-148775000D03*
%TD*%
D15*
%TO.C,D17*%
X172375000Y-149475000D03*
X174125000Y-149475000D03*
X174125000Y-152975000D03*
X172375000Y-152975000D03*
%TD*%
D11*
%TO.C,C13*%
X139800000Y-117200000D03*
X141350000Y-117200000D03*
%TD*%
D13*
%TO.C,D8*%
X139450000Y-167800000D03*
X136150000Y-167800000D03*
%TD*%
D11*
%TO.C,C20*%
X140600000Y-140000000D03*
X142150000Y-140000000D03*
%TD*%
D16*
%TO.C,D15*%
X141475000Y-182875000D03*
X141475000Y-184625000D03*
X137975000Y-184625000D03*
X137975000Y-182875000D03*
%TD*%
D24*
%TO.C,U3*%
X136675000Y-108800000D03*
X136675000Y-109750000D03*
X136675000Y-110700000D03*
X134400000Y-110700000D03*
X134400000Y-108800000D03*
%TD*%
D25*
%TO.C,C23*%
X141900000Y-158900000D03*
X140350000Y-158900000D03*
%TD*%
M02*
